<?xml version="1.0" encoding="UTF-8"?>
<svg width="52px" height="36px" viewBox="0 0 52 36" version="1.1" xmlns="http://www.w3.org/2000/svg" xmlns:xlink="http://www.w3.org/1999/xlink">
    <!-- Generator: Sketch 52.1 (67048) - http://www.bohemiancoding.com/sketch -->
    <title>icon/ios content</title>
    <desc>Created with Sketch.</desc>
    <g id="Page-1" stroke="none" stroke-width="1" fill="none" fill-rule="evenodd">
        <g id="会员激活" transform="translate(-658.000000, -66.000000)" fill="#272536">
            <g id="Group-2" transform="translate(658.000000, 66.000000)">
                <path d="M31.9691497,14.0067114 C34.1809144,14.0067114 35.9677594,15.7828188 35.9677594,17.9811007 C35.9677594,20.1793826 34.1809144,21.9554362 31.9691497,21.9554362 C29.757385,21.9554362 27.9705401,20.1793826 27.9705401,17.9811007 C27.9705401,15.7828188 29.757385,14.0067114 31.9691497,14.0067114 Z M16.0246043,14.0067114 C18.2239091,14.0067114 20.0232674,15.7828188 20.0232674,17.9811007 C20.0232674,20.1793826 18.236369,21.9554362 16.0246043,21.9554362 C13.8128396,21.9554362 12.0259947,20.1793826 12.0259947,17.9811007 C12.0259947,15.7828188 13.8128396,14.0067114 16.0246043,14.0067114 Z M47.9637487,14.0067114 C50.1754599,14.0067114 51.9623583,15.7828188 51.9623583,17.9811007 C51.9623583,20.1793826 50.1755134,21.9554362 47.9637487,21.9554362 C45.751984,21.9554362 43.965139,20.1793826 43.965139,17.9811007 C43.965139,15.7828188 45.751984,14.0067114 47.9637487,14.0067114 Z" id="合并形状"></path>
            </g>
        </g>
    </g>
</svg>