<?xml version="1.0" encoding="UTF-8"?>
<svg width="36px" height="32px" viewBox="0 0 36 32" version="1.1" xmlns="http://www.w3.org/2000/svg" xmlns:xlink="http://www.w3.org/1999/xlink">
    <!-- Generator: Sketch 52.1 (67048) - http://www.bohemiancoding.com/sketch -->
    <title>normal icon_wenda</title>
    <desc>Created with Sketch.</desc>
    <g id="Page-1" stroke="none" stroke-width="1" fill="none" fill-rule="evenodd">
        <g id="健康资讯" transform="translate(-455.000000, -154.000000)" fill="#999999" fill-rule="nonzero">
            <g id="问答1" transform="translate(455.000000, 154.000000)">
                <path d="M30.4787917,7.97177321 C29.8710523,7.97177321 29.4022514,8.45779241 29.4022514,9.04793189 C29.4022514,9.6379592 29.9058337,10.1239036 30.4959954,10.1239036 C31.0865311,10.1239036 31.5725356,10.6099228 31.5725356,11.2000623 L31.5725356,23.1583405 C31.5725356,23.7658645 31.0865311,24.2343123 30.4959954,24.2343123 L29.4022514,24.2343123 C28.794512,24.2343123 28.3257112,24.7205184 28.3257112,25.3104709 L28.3257112,25.3278555 L28.3257112,27.0113512 L25.8429555,24.54686 C25.6346411,24.3386195 25.356951,24.2343123 25.0616831,24.2343123 C25.0616831,24.2343123 25.0616831,24.2343123 25.0444794,24.2343123 L19.6274083,24.2343123 C19.0196689,24.2343123 18.5508681,24.7205184 18.5508681,25.3104709 C18.5508681,25.9006104 19.0370596,26.3866296 19.6274083,26.3866296 L24.6103104,26.3866296 L28.6036258,30.4131118 C28.8121271,30.6215393 29.0898173,30.7428571 29.3675074,30.7428571 C29.506633,30.7428571 29.6453846,30.708275 29.7843232,30.6561214 C30.1835612,30.482463 30.4614384,30.100751 30.4614384,29.6496878 L30.4788291,26.3866296 L30.4960328,26.3866296 C32.2844696,26.3866296 33.7428571,24.928572 33.7428571,23.1235715 L33.7428571,11.1826778 C33.7428197,9.42964389 32.2844322,7.97177321 30.4787917,7.97177321 Z M27.2147636,18.8019261 L27.2147636,4.69151744 C27.2147636,2.90390142 25.756189,1.42857143 23.9505485,1.42857143 L4.43545665,1.42857143 C2.64720683,1.42857143 1.17142857,2.88651688 1.17142857,4.69151744 L1.17142857,18.7845415 C1.17142857,20.5723445 2.62981614,22.0475997 4.43545665,22.0475997 L4.45284735,22.0475997 L4.43545665,27.4799859 C4.43545665,27.931236 4.7133338,28.3305195 5.11257184,28.4866065 C5.25151042,28.53876 5.3730583,28.5561446 5.51199687,28.5561446 C5.80707773,28.5561446 6.10223338,28.4344529 6.31054775,28.2090147 L12.074797,22.0475997 L23.9505485,22.0475997 C25.756189,22.0475997 27.2147636,20.5895421 27.2147636,18.8019261 Z M11.6233869,19.8780848 L11.6059962,19.8780848 C11.5019512,19.8780848 11.3976818,19.9128538 11.2935246,19.947436 C11.2587433,19.9648205 11.2241489,19.9648205 11.1893675,19.9648205 C11.1024888,19.9995896 11.0157597,20.0689408 10.9462717,20.138292 C10.9114903,20.1556765 10.8768959,20.173061 10.8595052,20.2078301 C10.8595052,20.2078301 10.8421145,20.2252146 10.8247238,20.2252146 L6.6057034,24.7205184 L6.6230941,21.1103304 C6.6230941,21.0581768 6.65776329,21.0234077 6.65776329,20.971441 C6.65776329,20.363917 6.17168397,19.8952824 5.58133526,19.8952824 L4.43541925,19.8952824 C3.84518274,19.8952824 3.35899122,19.4094501 3.35899122,18.8193106 L3.35899122,4.69151744 C3.35899122,4.10137797 3.84518274,3.61535876 4.43541925,3.61535876 L23.9679392,3.61535876 C24.5756786,3.61535876 25.0444794,4.10137797 25.0444794,4.69151744 L25.0444794,18.7845415 C25.0444794,19.3920655 24.5582879,19.8607002 23.9679392,19.8607002 L11.6233869,19.8607002 L11.6233869,19.8780848 Z M18.3079593,10.5751538 L15.634093,10.5751538 L15.634093,7.90234723 C15.634093,7.27755085 15.1306229,6.75683736 14.4881769,6.75683736 C13.8458431,6.75683736 13.3422609,7.26012893 13.3422609,7.90234723 L13.3422609,10.5751538 L10.6685067,10.5751538 C10.0434888,10.5751538 9.52259073,11.0784454 9.52259073,11.7206637 C9.52259073,12.3629567 10.0261729,12.8662483 10.6685067,12.8662483 L13.3422609,12.8662483 L13.3422609,15.5216703 C13.3422609,16.1463919 13.8458431,16.6671802 14.4881769,16.6671802 C15.1305855,16.6671802 15.634093,16.1637764 15.634093,15.5216703 L15.634093,12.8488638 L18.3079593,12.8488638 C18.9329024,12.8488638 19.4538753,12.3455722 19.4538753,11.7033539 C19.4538753,11.0611356 18.9329024,10.5751538 18.3079593,10.5751538 Z" id="形状"></path>
            </g>
        </g>
    </g>
</svg>