<?xml version="1.0" encoding="UTF-8"?>
<svg width="32px" height="32px" viewBox="0 0 32 32" version="1.1" xmlns="http://www.w3.org/2000/svg" xmlns:xlink="http://www.w3.org/1999/xlink">
    <!-- Generator: Sketch 52.1 (67048) - http://www.bohemiancoding.com/sketch -->
    <title>normal icon_zixun</title>
    <desc>Created with Sketch.</desc>
    <g id="Page-1" stroke="none" stroke-width="1" fill="none" fill-rule="evenodd">
        <g id="icon状态" transform="translate(-123.000000, -60.000000)" fill="#999999" fill-rule="nonzero">
            <g id="资讯" transform="translate(123.000000, 60.000000)">
                <path d="M17.08,1.4 L7,8.4 L3.64,8.4 C2.402,8.4 1.4,9.444 1.4,10.734 L1.4,20.066 C1.4,21.356 2.402,22.4 3.64,22.4 L7,22.4 L17.08,29.4 C18.318,29.4 19.32,28.356 19.32,27.066 L19.32,3.734 C19.32,2.444 18.318,1.4 17.08,1.4 Z M7,18.9 C7,19.544 6.5,20.066 5.88,20.066 L4.76,20.066 C4.45675079,20.0602252 4.16825524,19.9340534 3.95814497,19.7153136 C3.74803469,19.4965738 3.63357085,19.203236 3.64,18.9 L3.64,11.9 C3.64,11.256 4.14,10.734 4.76,10.734 L5.88,10.734 C6.498,10.734 7,11.256 7,11.9 L7,18.9 Z M17.08,27.066 L9.24,21.962 L9.24,8.838 L17.08,3.734 L17.08,27.066 Z M22.682,7.352 L22.682,9.684 C25.236,10.224 27.16,12.578 27.16,15.4 C27.16,18.222 25.236,20.576 22.682,21.116 L22.682,23.448 C26.474,22.878 29.4,19.512 29.4,15.4 C29.4,11.288 26.474,7.922 22.682,7.352 Z" id="形状"></path>
            </g>
        </g>
    </g>
</svg>