<?xml version="1.0" encoding="UTF-8"?>
<svg width="38px" height="38px" viewBox="0 0 38 38" version="1.1" xmlns="http://www.w3.org/2000/svg" xmlns:xlink="http://www.w3.org/1999/xlink">
    <!-- Generator: Sketch 52.1 (67048) - http://www.bohemiancoding.com/sketch -->
    <title>Shape Copy 3</title>
    <desc>Created with Sketch.</desc>
    <g id="Page-1" stroke="none" stroke-width="1" fill="none" fill-rule="evenodd">
        <g id="会员激活" transform="translate(-652.000000, -493.000000)" fill="#FF3B30">
            <g id="分组-3" transform="translate(652.000000, 493.000000)">
                <path d="M19,34.46875 C21.0882813,34.46875 23.1132812,34.0609375 25.01875,33.2558594 C26.8609375,32.4753906 28.5132812,31.3609375 29.9371094,29.940625 C31.3574219,28.5203125 32.4753906,26.8644531 33.2523438,25.0222656 C34.0609375,23.1132812 34.46875,21.0882813 34.46875,19 C34.46875,16.9117188 34.0609375,14.8867188 33.2558594,12.98125 C32.4753906,11.1390625 31.3609375,9.48671875 29.940625,8.06289063 C28.5203125,6.64257812 26.8644531,5.52460937 25.0222656,4.74765625 C23.1132812,3.9390625 21.0882813,3.53125 19,3.53125 C16.9117188,3.53125 14.8867188,3.9390625 12.98125,4.74414062 C11.1390625,5.52460937 9.48671875,6.6390625 8.06289063,8.059375 C6.64257812,9.4796875 5.52460937,11.1355469 4.74765625,12.9777344 C3.9390625,14.8867188 3.53125,16.9117188 3.53125,19 C3.53125,21.0882813 3.9390625,23.1132812 4.74414062,25.01875 C5.52460937,26.8609375 6.6390625,28.5132812 8.059375,29.9371094 C9.4796875,31.3574219 11.1355469,32.4753906 12.9777344,33.2523438 C14.8867188,34.0609375 16.9117188,34.46875 19,34.46875 L19,34.46875 Z M19,37 C9.0578125,37 1,28.9421875 1,19 C1,9.0578125 9.0578125,1 19,1 C28.9421875,1 37,9.0578125 37,19 C37,28.9421875 28.9421875,37 19,37 L19,37 L19,37 Z M19,14.5 C18.2230469,14.5 17.59375,15.1292969 17.59375,15.90625 L17.59375,28.8789062 C17.59375,29.6558594 18.2230469,30.2851562 19,30.2851562 C19.7769531,30.2851562 20.40625,29.6558594 20.40625,28.8789062 L20.40625,15.90625 C20.40625,15.1292969 19.7769531,14.5 19,14.5 L19,14.5 Z M17.4179688,10.6679688 C17.4179688,11.5417005 18.1262683,12.25 19,12.25 C19.8737317,12.25 20.5820313,11.5417005 20.5820313,10.6679688 C20.5820313,9.79423702 19.8737317,9.0859375 19,9.0859375 C18.1262683,9.0859375 17.4179688,9.79423702 17.4179688,10.6679688 L17.4179688,10.6679688 Z" id="Shape-Copy-3" transform="translate(19.000000, 19.000000) scale(1, -1) translate(-19.000000, -19.000000) "></path>
            </g>
        </g>
    </g>
</svg>