<?xml version="1.0" encoding="UTF-8"?>
<svg width="32px" height="32px" viewBox="0 0 32 32" version="1.1" xmlns="http://www.w3.org/2000/svg" xmlns:xlink="http://www.w3.org/1999/xlink">
    <!-- Generator: Sketch 52.1 (67048) - http://www.bohemiancoding.com/sketch -->
    <title>Shape 2</title>
    <desc>Created with Sketch.</desc>
    <g id="Page-1" stroke="none" stroke-width="1" fill="none" fill-rule="evenodd">
        <g id="我的档案" transform="translate(-285.000000, -155.000000)" fill="#BBBBBB">
            <g id="Shape-2" transform="translate(285.000000, 155.000000)">
                <path d="M28.9411759,31 L21.8823524,23.4158234 C19.7666255,25.0661067 16.4418569,26.6869398 13.5753801,26.6869398 C6.63024356,26.6869398 1,20.9366777 1,13.8435985 C1,6.75051939 6.63024356,1 13.5753801,1 C20.5200081,1 26.1502517,6.75000481 26.1502517,13.8433412 C26.1502517,16.6403836 25.2652667,19.221299 23.7785122,21.3298228 L31,28.6825115 L28.9411759,31 Z M13.5754137,3.68511111 C8.08159044,3.68511111 3.62802874,8.2328576 3.62802874,13.8433299 C3.62802874,19.4538022 8.081325,24.0020859 13.5754137,24.0020859 C19.0679098,24.0020859 23.521206,19.4538022 23.521206,13.8433299 C23.521206,8.2328576 19.0679098,3.68511111 13.5754137,3.68511111 L13.5754137,3.68511111 Z" id="Shape"></path>
            </g>
        </g>
    </g>
</svg>