<?xml version="1.0" encoding="UTF-8"?>
<svg width="40px" height="40px" viewBox="0 0 40 40" version="1.1" xmlns="http://www.w3.org/2000/svg" xmlns:xlink="http://www.w3.org/1999/xlink">
    <!-- Generator: Sketch 52.1 (67048) - http://www.bohemiancoding.com/sketch -->
    <title>一般检查</title>
    <desc>Created with Sketch.</desc>
    <g id="Page-1" stroke="none" stroke-width="1" fill="none" fill-rule="evenodd">
        <g id="我的报告-copy-2" transform="translate(-40.000000, -163.000000)" fill="#008FB0" fill-rule="nonzero">
            <g id="医疗" transform="translate(40.000000, 163.000000)">
                <path d="M3,34 L3,10.2291798 L11.3832136,10.2291798 L11.3832136,6.90126422 L11.3832135,5.95064946 L11.3832135,5 L28.6167864,5 L28.6167864,5.95064946 L28.6167864,6.90126422 L28.6167864,10.2291798 L37,10.2291798 L37,34 L3,34 Z M27,7 L13,7 L13,10 L27,10 L27,7 Z M35,12 L5,12 L5,32 L35,32 L35,12 Z M18.793377,15 L20.7239738,15 L20.7239738,21.2760262 L27,21.2760262 L27,23.206623 L20.7239738,23.206623 L20.7239738,29 L18.793377,29 L18.793377,23.206623 L13,23.206623 L13,21.2760262 L18.793377,21.2760262 L18.793377,15 Z" id="形状"></path>
            </g>
        </g>
    </g>
</svg>