<?xml version="1.0" encoding="UTF-8"?>
<svg width="52px" height="52px" viewBox="0 0 52 52" version="1.1" xmlns="http://www.w3.org/2000/svg" xmlns:xlink="http://www.w3.org/1999/xlink">
    <!-- Generator: Sketch 52.1 (67048) - http://www.bohemiancoding.com/sketch -->
    <title>中西医结合临床中心</title>
    <desc>Created with Sketch.</desc>
    <g id="Page-1" stroke="none" stroke-width="1" fill="none" fill-rule="evenodd">
        <g id="专科诊疗" transform="translate(-40.000000, -390.000000)" fill="#008FB0" fill-rule="nonzero">
            <g id="复旦中西医结合临床中心" transform="translate(40.000000, 390.000000)">
                <path d="M34.3783167,31.7735619 L17.4800526,23.1965595 L10.6097213,35.0527472 C10.6017685,35.0664901 10.6017685,35.0664901 10.5938484,35.0802504 C8.05366824,39.499572 9.7244832,45.05995 14.325718,47.4997023 C18.9521393,49.9528093 24.772884,48.3497368 27.3428701,43.9146905 L34.3783167,31.7735619 Z M18.1885871,21.9738356 L35.0866446,30.5511946 L42.3902786,17.9472527 C42.3982315,17.9335099 42.3982315,17.9335099 42.4061515,17.9197496 C44.9463317,13.500428 43.2755168,7.94005001 38.6742819,5.50029775 C34.0478606,3.04719067 28.2271159,4.65026312 25.6571298,9.08530956 L18.1885871,21.9738356 Z M36.0311646,12.5930236 L34.2934866,15.6365248 L37.4630566,17.3057688 L36.4696115,19.045037 L33.3001929,17.3763013 L31.56312,20.4200931 L29.7526071,19.4656894 L31.4891505,16.4221881 L28.3204125,14.7525809 L29.31295,13.013676 L32.4819148,14.6826295 L34.2201222,11.6389104 L36.0311646,12.5930236 Z M43.6375271,18.5726724 C43.631473,18.5832052 43.6254,18.5937279 43.6193082,18.6042406 L28.5718997,44.5716783 C25.6250521,49.6570778 18.9507563,51.495224 13.6459189,48.6823945 C8.36461399,45.8820429 6.44684996,39.499832 9.3624729,34.4273275 C9.36852701,34.4167948 9.37459998,34.4062721 9.38069179,34.3957594 L24.4281003,8.42832166 C27.3749479,3.34292226 34.0492437,1.50477602 39.3540811,4.31760551 C44.635386,7.1179571 46.5531501,13.500168 43.6375271,18.5726724 Z" id="合并形状"></path>
            </g>
        </g>
    </g>
</svg>