<?xml version="1.0" encoding="UTF-8"?>
<svg width="52px" height="52px" viewBox="0 0 52 52" version="1.1" xmlns="http://www.w3.org/2000/svg" xmlns:xlink="http://www.w3.org/1999/xlink">
    <!-- Generator: Sketch 52.1 (67048) - http://www.bohemiancoding.com/sketch -->
    <title>传统特色中医诊疗中心</title>
    <desc>Created with Sketch.</desc>
    <g id="Page-1" stroke="none" stroke-width="1" fill="none" fill-rule="evenodd">
        <g id="专科诊疗" transform="translate(-40.000000, -1500.000000)" fill="#008FB0" fill-rule="nonzero">
            <g id="传统特色中医治疗中心" transform="translate(40.000000, 1500.000000)">
                <path d="M22.8717206,40.9419399 C22.004173,39.3606402 21.7991345,36.8626384 22.0512901,33.7692866 L18.7433536,27.6778186 L26.3690693,27.6778186 L27.8051472,30.3283191 C30.8055871,31.9415101 33.0023818,33.6003772 33.9187726,35.2718005 C36.019757,39.1012411 35.3117354,43.1590643 32.0670644,44.8188037 C28.9814861,46.3973534 24.8869535,44.6176176 22.8717206,40.9419399 Z M23.4178339,33.4942174 L23.4010765,33.6869716 C23.1452717,36.6293871 23.3253738,38.9994294 24.0506284,40.3213682 C25.7478081,43.4169335 29.0826761,44.8664682 31.4475969,43.6565887 C33.9537686,42.374622 34.519,39.1351819 32.7398693,35.8923804 C31.9685002,34.4854651 29.8600687,32.9115829 26.9892005,31.3857506 L26.8118437,31.2914875 L25.5642949,28.9889462 L20.9712724,28.9889462 L23.4178339,33.4942174 Z M24.5212258,23.3550025 L25.0206804,24.2973826 L23.9369392,24.3125921 C21.1920807,24.351114 19.6059968,24.3554446 17.8881099,24.3124455 L17.5127594,24.3030504 L17.3253553,23.9842973 C15.8105705,21.4078212 14.6376406,19.289322 12.1045429,14.6179986 C12.031632,14.4835418 12.031632,14.4835418 11.9587243,14.3490943 C10.2622472,11.2207117 9.41247438,9.67080802 8.4090117,7.89343967 C7.02547569,5.68799592 7.11930049,2.90382855 9.41628547,2.16028892 C11.4560078,1.50002587 13.2905456,2.95850807 14.5799785,5.08717278 C17.8599826,10.8839702 20.1661071,15.1376841 24.5212258,23.3550025 Z M13.4193191,5.73963848 C12.4334922,4.11261095 11.0496238,3.01241694 9.8361535,3.40522022 C8.61127802,3.80171537 8.55019007,5.61444665 9.56454777,7.23269342 C10.5882319,9.04444871 11.4406103,10.5991047 13.1405929,13.7339515 C13.2135112,13.8684186 13.2135112,13.8684186 13.2864212,14.0028737 C15.7065806,18.4659258 16.8801505,20.5894291 18.2975995,23.0104131 C19.6203422,23.0383587 20.9255941,23.0380591 22.8331905,23.0156837 C18.8023546,15.4178148 16.5550456,11.2820186 13.4193191,5.73963848 Z M45.0580866,26.710832 C45.1186867,27.3614535 45.1492001,28.0175406 45.1492001,28.6775233 C45.1492001,37.5452451 39.6403161,45.0750158 32.0035224,47.6888725 L40.1305501,47.6888725 C40.5001132,47.6888725 40.7997034,47.9823784 40.7997034,48.3444362 C40.7997034,48.7064941 40.5001132,49 40.1305501,49 L12.02611,49 C11.6565469,49 11.3569567,48.7064941 11.3569567,48.3444362 C11.3569567,47.9823784 11.6565469,47.6888725 12.02611,47.6888725 L20.1531377,47.6888725 C12.516344,45.0750158 7.00746,37.5452451 7.00746,28.6775233 C7.00746,28.0175147 7.03797581,27.3614254 7.09857319,26.710832 L5.66915333,26.710832 C5.29959015,26.710832 5,26.4173261 5,26.0552682 C5,25.6932104 5.29959015,25.3997045 5.66915333,25.3997045 L46.3308467,25.3997045 C46.7004098,25.3997045 47,25.6932104 47,26.0552682 C47,26.4173261 46.7004098,26.710832 46.3308467,26.710832 L45.0580866,26.710832 Z M43.7138551,26.710832 L8.44280468,26.710832 C8.37828278,27.3608275 8.34576667,28.0169766 8.34576667,28.6775233 C8.34576667,39.0060571 16.2958115,47.3610906 26.0783301,47.3610906 C35.8608486,47.3610906 43.8108934,39.0060571 43.8108934,28.6775233 C43.8108934,28.017003 43.7783799,27.3608566 43.7138551,26.710832 Z" id="合并形状"></path>
            </g>
        </g>
    </g>
</svg>