<?xml version="1.0" encoding="UTF-8"?>
<svg width="45px" height="53px" viewBox="0 0 45 53" version="1.1" xmlns="http://www.w3.org/2000/svg" xmlns:xlink="http://www.w3.org/1999/xlink">
    <!-- Generator: Sketch 52.1 (67048) - http://www.bohemiancoding.com/sketch -->
    <title>位置地图</title>
    <desc>Created with Sketch.</desc>
    <g id="Page-1" stroke="none" stroke-width="1" fill="none" fill-rule="evenodd">
        <g id="就诊导航" transform="translate(-40.000000, -1780.000000)" fill="#008FB0" stroke="#008FB0" stroke-width="0.5">
            <g id="分组-20-copy-2" transform="translate(40.000000, 1780.000000)">
                <path d="M22.9999771,21 C25.7558866,21 28,18.7583473 28,15.9999519 C28,13.2415566 25.7558866,11 22.9999771,11 C20.2441134,11 18,13.2415566 18,15.9999519 C17.9999542,18.7583472 20.2440676,21 22.9999771,21 Z M22.9999771,12.9995483 C24.6581543,12.9995483 26.0000458,14.3428964 26.0000458,15.9999519 C26.0000458,17.6550372 24.6582,19.0004517 22.9999771,19.0004517 C21.3446832,19.0004517 19.9999542,17.6550372 19.9999542,15.9999519 C19.9999542,14.3428964 21.3446374,12.9995483 22.9999771,12.9995483 Z" id="形状" fill-rule="nonzero"></path>
                <path d="M37.6702138,14.7347821 C37.629176,15.4345145 37.6117805,15.9847801 37.4713674,17.0506532 L41.9000024,15.6574682 L41.9000024,37.51671 L29.2998726,41.012927 L14.6214656,36.9478928 L14.6214656,36.9418048 L14.6112301,36.9459753 L15.0378186,36.9418048 L14.5999375,36.950002 L4.0999495,40.3132425 L4.09994955,18.5399033 L8.4465568,17.4904726 C8.34194374,16.8909759 8.29989669,16.2527943 8.29989669,15.614421 L8.29989669,15.5346542 L2,17.0506532 L2,42.987105 L4.09999759,42.3099029 L14.6112782,38.9405744 L29.2999207,43 L44,38.9385132 L44,13 L37.6702138,14.7347821 Z" id="路径"></path>
                <path d="M17.3084054,30.8113966 C17.3930349,30.9261763 17.4766232,31.0189067 17.5443466,31.0854799 C19.5289503,33.3663918 21.5283779,34.8836946 21.6151392,34.9481431 L23.0084272,36 L24.3953692,34.9401165 C24.4821306,34.8755735 26.4751625,33.3402346 28.4556017,31.0672549 C28.5233251,30.998793 28.6100864,30.9041741 28.6936748,30.7871752 C31.5256641,27.2851877 35.0463898,22.211364 35.8420161,17.8187119 C35.995311,16.8173279 35.9996242,16.2108033 35.9996242,16.1443718 C36.0261484,12.8618399 34.6476347,9.77699738 32.1192108,7.46780375 C29.6711528,5.23117962 26.4317818,4 22.9999493,4 C19.5818499,4 16.3510559,5.23117962 13.9029978,7.46780375 C11.3607913,9.78899002 9.97384932,12.8901689 10.0003735,16.1966861 C10.0003735,16.2490948 10.0045381,16.8576968 10.1516853,17.8107325 C11.0065077,22.5116518 14.9799293,27.9460096 17.3084054,30.8113966 Z M22.999999,5.96452378 C28.9804335,5.96452378 33.8764503,10.5042508 33.8330696,16.1442774 C33.8330696,16.1442774 33.8330696,16.6540111 33.7028781,17.5002936 C32.9877663,21.4496437 29.6087838,26.3420199 26.9004914,29.6829097 C26.8782805,29.7232313 26.8348998,29.7614756 26.8137301,29.7816363 C24.9286788,31.9619329 22.999999,33.4367894 22.999999,33.4367894 C22.999999,33.4367894 21.0714183,31.9820465 19.1863174,29.8017971 C19.1651476,29.7816363 19.1217669,29.7413619 19.0995561,29.7030705 C16.3912636,26.3823416 13.0122316,21.4698517 12.2971198,17.538585 C12.1669778,16.6943327 12.1669778,16.1825216 12.1669778,16.1825216 C12.1235972,10.5426367 17.0195645,5.96452378 22.999999,5.96452378 Z" id="形状" fill-rule="nonzero"></path>
            </g>
        </g>
    </g>
</svg>