<?xml version="1.0" encoding="UTF-8"?>
<svg width="52px" height="52px" viewBox="0 0 52 52" version="1.1" xmlns="http://www.w3.org/2000/svg" xmlns:xlink="http://www.w3.org/1999/xlink">
    <!-- Generator: Sketch 52.1 (67048) - http://www.bohemiancoding.com/sketch -->
    <title>健康管理中心</title>
    <desc>Created with Sketch.</desc>
    <g id="Page-1" stroke="none" stroke-width="1" fill="none" fill-rule="evenodd">
        <g id="专科诊疗" transform="translate(-40.000000, -1278.000000)" fill="#008FB0" fill-rule="nonzero">
            <g id="交易记录" transform="translate(40.000000, 1278.000000)">
                <path d="M32.4648747,12.4 C32.9445111,12.4 33.3333333,11.9821324 33.3333333,11.4666666 C33.3333333,10.9512009 32.9445111,10.5333333 32.4648747,10.5333333 L21.5351253,10.5333333 C21.0554889,10.5333333 20.6666667,10.9512009 20.6666667,11.4666666 C20.6666667,11.9821324 21.0554889,12.4 21.5351253,12.4 L32.4648747,12.4 Z M41.1745221,12.4 C42.7741051,12.4 44.0677966,13.6499767 44.0677966,15.1989171 L44.0677966,41.3344163 C44.0677966,42.880643 42.7724189,44.1333333 41.1740123,44.1333333 L12.8259877,44.1333333 C11.2260944,44.1333333 9.93220339,42.883329 9.93220339,41.3344163 L9.93220339,15.1989171 C9.93220339,13.6535187 11.2294263,12.4 12.8275463,12.4 L13.9935897,12.4 C14.5271529,12.4 14.9596914,11.9821324 14.9596914,11.4666666 C14.9596914,10.9512009 14.5271529,10.5333333 13.9935897,10.5333333 L12.8275463,10.5333333 C10.1621979,10.5333333 8,12.6226856 8,15.1989171 L8,41.3344163 C8,43.9142606 10.158968,46 12.8259877,46 L41.1740123,46 C43.8399771,46 46,43.9111578 46,41.3344163 L46,15.1989171 C46,12.6191003 43.8412885,10.5333333 41.1745221,10.5333333 L39.8176246,10.5333333 C39.2840614,10.5333333 38.8515229,10.9512009 38.8515229,11.4666666 C38.8515229,11.9821324 39.2840614,12.4 39.8176246,12.4 L41.1745221,12.4 Z M16.8666667,15.2833333 C16.8666667,15.8080038 17.2919962,16.2333333 17.8166666,16.2333333 C18.3413372,16.2333333 18.7666667,15.8080038 18.7666667,15.2833333 L18.7666667,8.94999999 C18.7666667,8.42532946 18.3413372,8 17.8166666,8 C17.2919962,8 16.8666667,8.42532946 16.8666667,8.94999999 L16.8666667,15.2833333 Z M35.2333333,15.2833333 C35.2333333,15.8080038 35.6586628,16.2333333 36.1833334,16.2333333 C36.7080038,16.2333333 37.1333333,15.8080038 37.1333333,15.2833333 L37.1333333,8.94999999 C37.1333333,8.42532946 36.7080038,8 36.1833334,8 C35.6586628,8 35.2333333,8.42532946 35.2333333,8.94999999 L35.2333333,15.2833333 Z M38.0580452,24.4666666 C38.596682,24.4666666 39.0333334,24.0413372 39.0333334,23.5166667 C39.0333334,22.9919961 38.596682,22.5666667 38.0580452,22.5666667 L15.9419548,22.5666667 C15.403318,22.5666667 14.9666666,22.9919961 14.9666666,23.5166667 C14.9666666,24.0413372 15.403318,24.4666666 15.9419548,24.4666666 L38.0580452,24.4666666 Z M31.1166667,33.9666667 C31.6413372,33.9666667 32.0666667,33.5413372 32.0666667,33.0166667 C32.0666667,32.4919962 31.6413372,32.0666667 31.1166667,32.0666667 L15.9166667,32.0666667 C15.3919961,32.0666667 14.9666666,32.4919962 14.9666666,33.0166667 C14.9666666,33.5413372 15.3919961,33.9666667 15.9166667,33.9666667 L31.1166667,33.9666667 Z" id="形状"></path>
            </g>
        </g>
    </g>
</svg>