<?xml version="1.0" encoding="UTF-8"?>
<svg width="40px" height="40px" viewBox="0 0 40 40" version="1.1" xmlns="http://www.w3.org/2000/svg" xmlns:xlink="http://www.w3.org/1999/xlink">
    <!-- Generator: Sketch 52.1 (67048) - http://www.bohemiancoding.com/sketch -->
    <title>内科</title>
    <desc>Created with Sketch.</desc>
    <g id="Page-1" stroke="none" stroke-width="1" fill="none" fill-rule="evenodd">
        <g id="我的报告-copy-2" transform="translate(-40.000000, -274.000000)" fill="#008FB0" fill-rule="nonzero">
            <g id="内科_五院" transform="translate(40.000000, 274.000000)">
                <path d="M20.999996,7.00024814 C21.0077521,7.00008301 21.0155296,7 21.0233274,7 C21.5885112,7 22.0466548,7.43605195 22.0466548,7.97398247 L22.0466548,13.939333 C22.3300471,14.6172487 23.0079689,15.952443 23.8474299,16.729417 C24.223014,16.2373176 24.7047044,15.826642 25.2718265,15.5233023 C26.3428642,14.9504356 27.6175928,14.8422441 28.7691919,15.226738 C30.3429558,15.7521506 32.5897659,16.8349808 34.3561932,19.0095449 C36.5003875,21.649121 37.3467394,25.1511494 36.8718462,29.4183639 C36.8010119,30.0550001 36.5842233,30.6806631 36.2449795,31.2277813 C35.5048068,32.4214501 33.512875,34.8613434 29.6163624,34.8613434 C28.905082,34.8613434 28.1308164,34.7801035 27.2886539,34.595196 C25.7939105,34.2670117 24.5924721,33.2132989 24.0747702,31.7766322 C23.2613656,29.5191055 22.0462454,24.8115851 23.025774,18.607403 C22.1758711,18.0275485 21.4948805,17.1397159 20.9999966,16.3307075 C20.4164473,17.2846625 19.5741275,18.3482084 18.5012147,18.8871646 C18.3543495,18.9612508 18.1906609,18.9999902 18.0244425,19 C18.020283,19 18.016125,18.9999758 18.0119689,18.9999275 C18.9194036,25.0786032 17.7262912,29.6886139 16.9239728,31.9152406 C16.4063191,33.3519555 15.2048325,34.405572 13.7100892,34.7338044 C12.86836,34.9186638 12.0935166,34.9999519 11.3824769,35 C7.48533837,35.0001925 5.49412887,32.5602029 4.75385987,31.3663416 C4.41461606,30.8192715 4.19782745,30.1936084 4.12694496,29.5569241 C3.77522932,26.3967001 4.15521128,23.6317027 5.25634519,21.338744 C5.4864724,20.8594861 6.06176635,20.6574932 6.54133046,20.8874484 C7.02084641,21.1174517 7.22299626,21.6924842 6.992869,22.1717421 C6.05025756,24.1346877 5.73008265,26.5477737 6.04130098,29.3441506 C6.08069081,29.6981796 6.20165326,30.0467702 6.39104232,30.35219 C7.07164871,31.4497955 8.55873567,33.0725729 11.3952858,33.0727172 C11.9719281,33.0727172 12.6040435,33.005675 13.2968329,32.8535427 C14.1412587,32.6681058 14.8197463,32.0735334 15.1118475,31.2629628 C15.8644921,29.1742109 16.9884509,24.8054947 16.0639452,19.0051171 C16.0551867,18.9628429 16.0450368,18.9208686 16.033512,18.8792626 C15.8548131,18.2226533 15.4232102,17.6828023 14.818109,17.359142 C14.2032326,17.0301877 13.5007162,16.9705572 12.8399492,17.1912237 C11.9801143,17.4783068 11.1655438,17.865544 10.4189186,18.3421068 C9.97060632,18.6282273 9.37513591,18.4969825 9.08886129,18.0490078 C8.80253855,17.6009849 8.93385406,17.005835 9.3821182,16.7196663 C10.2618889,16.1581097 11.2199095,15.7024345 12.2295993,15.3652983 C13.3811503,14.9808525 14.6559269,15.0888997 15.7269647,15.6618626 C16.4339129,16.0400403 17.0081181,16.5849804 17.4095139,17.2465248 C17.4520035,17.2162819 17.4975201,17.1887999 17.5459307,17.1644887 C18.6563524,16.6066912 19.6037056,14.7754168 19.9533283,13.9393049 L19.9533283,7.97397856 C19.9533283,7.43605023 20.4114757,7.00000005 20.9766642,7 C20.9844621,7 20.9922397,7.000083 20.999996,7.00024814 Z M24.9348941,18.8664606 C24.0104367,24.6668863 25.1343955,29.0355543 25.8869918,31.1243544 C26.1790449,31.934925 26.8575325,32.5294973 27.7019583,32.7149342 C31.8026431,33.615504 33.7887965,31.5343081 34.6077489,30.2135334 C34.7971861,29.9081136 34.9181004,29.559523 34.9575384,29.205494 C35.8802141,20.9144963 31.0940594,18.0325961 28.1588419,17.0526153 C27.4979305,16.8319969 26.7954622,16.8915793 26.1806821,17.2205336 C25.5756291,17.5441939 25.1439781,18.0840449 24.9652792,18.7406542 C24.9537893,18.7822494 24.9436556,18.8242071 24.9348941,18.8664606 Z" id="合并形状"></path>
            </g>
        </g>
    </g>
</svg>