<?xml version="1.0" encoding="UTF-8"?>
<svg width="40px" height="40px" viewBox="0 0 40 40" version="1.1" xmlns="http://www.w3.org/2000/svg" xmlns:xlink="http://www.w3.org/1999/xlink">
    <!-- Generator: Sketch 52.1 (67048) - http://www.bohemiancoding.com/sketch -->
    <title>分享</title>
    <desc>Created with Sketch.</desc>
    <g id="Page-1" stroke="none" stroke-width="1" fill="none" fill-rule="evenodd">
        <g id="健康资讯-copy" transform="translate(-652.000000, -1468.000000)" fill="#666666" fill-rule="nonzero">
            <g id="分享" transform="translate(652.000000, 1468.000000)">
                <path d="M32.1881746,38 L7.81173547,38 C4.60354459,37.9962803 2.00371965,35.3964548 2,32.1882632 L2,7.81181849 C2.00371965,4.60362688 4.60354459,2.00380134 7.81173547,2.00008168 L19.999955,2.00008168 C20.6212738,2.00008168 21.1249522,2.5037602 21.1249522,3.12507913 C21.1249522,3.74639806 20.6212738,4.25007658 19.999955,4.25007658 L7.81173547,4.25007658 C5.84749039,4.25007658 4.24999438,5.84757296 4.24999438,7.81181849 L4.24999438,32.1860132 C4.24999438,34.1525087 5.84749039,35.7500051 7.81173547,35.7500051 L32.1859246,35.7500051 C34.1524196,35.7500051 35.7499156,34.1525087 35.7499156,32.1882632 L35.7499156,22.4097854 C35.7499156,21.7884664 36.253594,21.2847879 36.8749128,21.2847879 C37.4962316,21.2847879 37.99991,21.7884664 37.99991,22.4097854 L37.99991,32.1882632 C37.9961904,35.3964548 35.3963654,37.9962803 32.1881746,38 Z M14.8924678,28.1045225 C14.3183071,28.1053552 13.8364225,27.6720475 13.7764706,27.1010247 C13.7449707,26.8040254 13.0564724,19.7502914 18.1279597,14.1365542 C21.7167007,10.1630632 27.208937,7.97606815 34.4741688,7.62056892 L31.2499269,3.85632747 C30.9886771,3.55086608 30.910234,3.12923297 31.0441463,2.75025326 C31.1780587,2.37127354 31.503982,2.09252325 31.8991442,2.01900492 C32.2943064,1.94548659 32.6986728,2.0883694 32.9599226,2.39383079 L37.7299107,7.96031815 C38.0153556,8.29404034 38.0805219,8.76335204 37.8968008,9.1622203 C37.7130797,9.56108856 37.3140589,9.81659283 36.8749128,9.81656394 L36.6476634,9.81656394 C28.9729326,9.81656394 23.3096967,11.7695595 19.8154555,15.6215508 C15.4144665,20.4725398 16.006215,26.8017754 16.012965,26.8647753 C16.0759305,27.4818751 15.6284859,28.0338911 15.0117175,28.1000225 C14.9712176,28.1045225 14.9329677,28.1045225 14.8924678,28.1045225 Z M32.1049247,16.1772995 C31.678402,16.1781532 31.2880767,15.9377275 31.0969484,15.5564239 C30.90582,15.1751204 30.946762,14.7185219 31.202677,14.3773036 L35.9726651,8.01656803 C36.3454564,7.51889157 37.0511098,7.4176522 37.5487861,7.79044355 C38.0464625,8.16323491 38.1477019,8.8688885 37.7749106,9.36656496 L33.0049225,15.7273005 C32.7924618,16.0105815 32.4590258,16.1772995 32.1049247,16.1772995 Z" id="形状"></path>
            </g>
        </g>
    </g>
</svg>