<?xml version="1.0" encoding="UTF-8"?>
<svg width="40px" height="48px" viewBox="0 0 40 48" version="1.1" xmlns="http://www.w3.org/2000/svg" xmlns:xlink="http://www.w3.org/1999/xlink">
    <!-- Generator: Sketch 52.1 (67048) - http://www.bohemiancoding.com/sketch -->
    <title>医院地址</title>
    <desc>Created with Sketch.</desc>
    <g id="Page-1" stroke="none" stroke-width="1" fill="none" fill-rule="evenodd">
        <g id="就诊导航" transform="translate(-40.000000, -177.000000)" fill="#008FB0" fill-rule="nonzero">
            <g id="分组-20" transform="translate(40.000000, 177.000000)">
                <path d="M20.9977417,9.74818283 C17.2275403,9.74818283 14.1605349,12.8502646 14.1605349,16.6620286 C14.1605349,20.4730173 17.2275403,23.5717392 20.9977417,23.5717392 C24.7677341,23.5717392 27.8331086,20.4730173 27.8331086,16.6620286 C27.8331086,12.8500492 24.7677341,9.74818283 20.9977417,9.74818283 M20.9977417,20.5104052 C18.9019122,20.5104052 17.1968447,18.7835806 17.1968447,16.6605641 C17.1968447,14.5380644 18.9018704,12.8104645 20.9977417,12.8104645 C23.0921494,12.8104645 24.7970078,14.5380214 24.7970078,16.6605641 C24.7970078,18.7834945 23.0921494,20.5104052 20.9977417,20.5104052 M37,17.6880872 C37,8.76170895 29.8214618,1.5 20.9977417,1.5 C12.175569,1.5 5,8.76170895 5,17.6880872 C5,24.6888987 14.8516869,38.7954494 19.0897239,44.5344599 C19.5358132,45.1400331 20.2497987,45.5 20.9978254,45.5 C21.7441374,45.5 22.4596284,45.1401623 22.9073906,44.5344599 C27.1438384,38.7954924 37,24.6907509 37,17.6880872 M21.2499974,42.0842556 L20.9977417,42.4297497 L20.745277,42.0842556 C12.7450679,31.1351364 7.77150833,21.7862913 7.77150833,17.6880872 C7.77150833,10.3094331 13.7036143,4.30625156 20.9977417,4.30625156 C28.2901546,4.30625156 34.2225115,10.3094331 34.2225115,17.6880872 C34.2239752,21.787842 29.2534684,31.1351364 21.2499974,42.0842556" id="形状"></path>
            </g>
        </g>
    </g>
</svg>