<?xml version="1.0" encoding="UTF-8"?>
<svg width="40px" height="40px" viewBox="0 0 40 40" version="1.1" xmlns="http://www.w3.org/2000/svg" xmlns:xlink="http://www.w3.org/1999/xlink">
    <!-- Generator: Sketch 52.1 (67048) - http://www.bohemiancoding.com/sketch -->
    <title>口腔科_五院</title>
    <desc>Created with Sketch.</desc>
    <g id="Page-1" stroke="none" stroke-width="1" fill="none" fill-rule="evenodd">
        <g id="我的报告-copy-3" transform="translate(-40.000000, -164.000000)" fill="#008FB0">
            <g id="口腔科_五院-copy" transform="translate(40.000000, 164.000000)">
                <path d="M20.5689786,9.76809883 C22.4369756,11.0057035 24.4284496,12.0648979 24.4568869,12.0799377 C24.9559581,12.3443783 25.1453615,12.9617633 24.8799613,13.4589342 C24.6958802,13.8035686 24.3416379,14 23.9753181,14 C23.8131916,14 23.6487111,13.96156 23.4955916,13.8803976 C23.3210293,13.7879173 19.1955043,11.5931161 17.0404198,9.67172822 C15.6522119,8.43405223 13.9111435,7.85740136 12.263523,8.08977467 C11.9448995,8.1346893 11.6412194,8.20687902 11.3609781,8.30430452 C10.8272606,8.48987692 10.2436463,8.20917319 10.0574158,7.67748794 C9.87118528,7.14580268 10.1529107,6.56441055 10.6866282,6.37883816 C11.0923538,6.23782353 11.5263798,6.13412731 11.9766288,6.07060446 C14.2233189,5.75385686 16.5665786,6.51251143 18.4056495,8.15217595 C18.5797309,8.30738232 18.7699131,8.46562514 18.9720252,8.62517379 L20.3026068,7.44233606 C21.2788398,6.4646063 22.3415314,5.77098984 23.4615053,5.38054097 C24.4224209,5.04555303 25.4302127,4.93084866 26.45658,5.03992657 C28.2395327,5.22924085 29.6297748,6.04876739 30.2234603,6.39869619 C30.2932398,6.4398309 30.3534885,6.47533915 30.3925359,6.49685214 C30.8257526,6.73576451 31.0863927,6.95434586 31.197651,7.04763185 L31.2087378,7.05689901 C33.2815553,8.60540844 34.2301196,10.7074872 33.9528006,13.137509 C33.8444113,14.086539 33.5512399,15.0789259 33.0813099,16.0871994 C32.0046138,18.3973158 29.6229671,26.1913051 28.3853647,30.4323892 C28.3799244,30.4516226 28.3755738,30.4711319 28.3723327,30.4908289 C28.1485032,31.8052487 27.8401116,32.7964064 27.4294577,33.5211812 C26.9969217,34.2846321 26.4396092,34.7592417 25.7729835,34.9316766 C25.5972035,34.977276 25.4160287,35.0002459 25.2341005,34.999998 C24.348119,35.0000453 23.4078213,34.4699275 22.583061,33.4867131 C22.4569229,33.3363114 22.3460536,33.1640183 22.2535167,32.9745622 C21.3229929,31.0691736 20.3530329,30.0195763 19.5221942,30.0191035 L19.5215621,30.0191035 C18.4570227,30.0191035 17.2811764,31.6484167 16.5975799,33.0439711 C16.3650462,33.518628 16.0192605,33.8947979 15.597617,34.1318663 C14.9361457,34.5037336 14.230035,34.5209913 13.6095075,34.1806133 C13.1704555,33.9399515 12.8336172,33.5372095 12.6612836,33.0466189 L7.65577978,18.7982138 C7.31815554,17.8382956 7.11348581,16.8389397 7.04716589,15.8264903 C6.93595624,14.1168463 7.02163678,12.6075803 7.30177615,11.3406782 C7.41468774,10.8300876 7.93207762,10.5053597 8.45705328,10.6149577 C8.98217484,10.7247449 9.31629004,11.2276759 9.20342708,11.7382666 C8.960779,12.8354288 8.88842224,14.1707469 8.98835043,15.7070578 C9.04374723,16.551908 9.21459991,17.3858239 9.49640395,18.1868195 L14.5019564,32.4351773 C14.5186354,32.482695 14.5415387,32.5129077 14.5559322,32.5262884 C14.5700827,32.5214657 14.5926455,32.5121985 14.6241071,32.4945153 C14.7025422,32.4504019 14.7798103,32.3566904 14.8415665,32.2305912 C15.0879102,31.7277074 15.6094333,30.756597 16.3341195,29.9029807 C17.3341311,28.7251092 18.4065966,28.127852 19.5215621,28.127852 L19.5233126,28.127852 C20.3646061,28.1283249 21.1715689,28.4721071 21.921687,29.1496479 C22.6646569,29.8207112 23.3479616,30.8064788 24.0105027,32.1632153 C24.0423047,32.2283689 24.0714808,32.2688417 24.0903966,32.2913476 C24.5730183,32.8667137 25.0701308,33.1563588 25.2727589,33.1042075 C25.519832,33.0402832 26.0845358,32.3473287 26.4532734,30.182224 C26.4683283,30.0924051 26.4886551,30.0034971 26.5141542,29.9159358 C26.8591618,28.7336671 29.9256207,18.2760866 31.3095414,15.3067272 C31.6949093,14.4799666 31.9337645,13.6800144 32.0194936,12.9290458 C32.221052,11.1629951 31.5457707,9.68914285 30.0124197,8.54838719 C29.9832434,8.52639063 29.9547827,8.50351104 29.9270795,8.47978207 C29.8533126,8.41793815 29.6999434,8.28928577 29.4329333,8.14200455 C29.3692807,8.10692183 29.2978479,8.06479419 29.2151336,8.01599993 C27.3796152,6.93406223 24.601465,5.83595431 21.6803032,8.77770145 C21.6662987,8.79183856 21.6518078,8.8055501 21.6368794,8.81878887 L20.5689786,9.76809883 Z" id="合并形状"></path>
            </g>
        </g>
    </g>
</svg>