<?xml version="1.0" encoding="UTF-8"?>
<svg width="52px" height="52px" viewBox="0 0 52 52" version="1.1" xmlns="http://www.w3.org/2000/svg" xmlns:xlink="http://www.w3.org/1999/xlink">
    <!-- Generator: Sketch 52.1 (67048) - http://www.bohemiancoding.com/sketch -->
    <title>国际医学美容</title>
    <desc>Created with Sketch.</desc>
    <g id="Page-1" stroke="none" stroke-width="1" fill="none" fill-rule="evenodd">
        <g id="专科诊疗" transform="translate(-40.000000, -834.000000)" fill="#008FB0" fill-rule="nonzero">
            <g id="美容" transform="translate(40.000000, 834.000000)">
                <path d="M28.9983968,43.9010693 C32.9209696,42.5246806 35.3458859,39.5617015 36.5217802,34.7731356 C37.0044629,32.9722484 37.2540986,31.1185487 37.2647582,29.2560627 L37.2647582,28.8414184 C37.3583617,26.4802494 36.4457274,23.8426509 33.3714365,19.8603379 L32.5436303,18.7920529 L32.055137,20.0762985 C31.1629783,22.4029137 28.3577977,24.1565136 24.1602646,25.3687723 C21.8465024,26.0368104 19.8749781,26.3852268 16.765586,26.8027506 C16.5548502,26.8343387 16.3459136,26.8766274 16.1396124,26.9294474 C14.2382908,27.3844044 14.1856388,29.561287 14.881815,33.0425715 C15.9319296,39.7085546 18.3919473,42.1359515 23.9496566,43.8693951 L23.8677535,44.4568079 L16.5052512,44.4568079 C12.7962115,44.4568079 10.5,42.1589873 10.5,38.5049344 L10.5,23.8023383 C10.5,18.4609133 12.1117357,13.8969465 17.2774803,10.4329388 C19.8515772,8.76860264 22.1945905,7.89612188 24.8535157,7.58225922 C33.2017801,6.73281426 40.4736041,12.5695088 41.9741856,20.1252495 C42.2315953,21.5477099 42.3603002,22.6822228 42.3603002,23.8023383 C42.3778508,24.1075625 42.4041768,24.5625195 42.4305028,25.184486 C42.5299565,27.6262803 42.5328817,30.2235661 42.3720006,32.6480835 L42.3632252,32.8093341 C42.2666966,34.1050975 42.1526173,35.2568873 42.0239125,36.2647033 C41.7782032,38.2313843 41.5354191,39.3169461 41.3891635,39.7200725 C40.5350314,43.1005754 38.8296921,44.5 36.5334807,44.5 L29.0802999,44.5 L28.9983968,43.9010693 Z M35.6844661,28.7814758 L35.6844661,29.2271519 C35.6844661,30.8327286 35.4569919,32.5325829 34.996211,34.2752906 C33.8938363,38.7491929 31.671589,41.2861183 27.9240984,42.386024 L27.267923,42.5774362 L27.728704,46 L36.5010399,46 C39.4902834,46 41.8029371,44.1087335 42.8090727,40.1205039 C42.9782202,39.6748279 43.246523,38.4749307 43.5089931,36.4036796 C43.6402282,35.3723395 43.7568816,34.2010113 43.856037,32.8811244 L43.8677024,32.7097105 C44.047909,29.7286516 44.0440135,26.7396476 43.856037,23.7590491 C43.856037,22.587721 43.7160529,21.3649686 43.4390011,19.8450989 C41.7796064,11.522955 33.820928,5.16635701 24.6986318,6.08913507 C21.8085437,6.42624902 19.2596669,7.37473915 16.4920649,9.15172969 C10.7935461,12.9542609 9,18.0109704 9,23.819044 L9,38.4063651 C9,42.9659743 12.0038252,45.9542896 16.5328935,45.9542896 L25.2177395,45.9542896 L25.6785204,42.5288689 L25.0194287,42.3403137 C19.5367187,40.7547353 17.4136268,38.8491843 16.4337381,32.6782847 C15.9554592,30.2842042 15.9962879,28.6500585 16.5066465,28.5272119 C16.6816266,28.4843584 16.9528458,28.4329342 16.8916028,28.4329342 C20.157898,28.0043996 22.1730856,27.6472873 24.5703131,26.9587749 C28.5365288,25.8217295 31.4295332,24.2075821 32.8760354,21.913493 C35.1216134,25.0046566 35.7544581,27.0044853 35.6844661,28.7814758 Z M32,29.9978086 C33.1040724,29.9978086 34,31.6513201 34,30.7105291 C34,29.7661745 33.1040724,29 32,29 C30.8959276,29 30,29.7661745 30,30.7105291 C30,31.6513201 30.8959276,29.9978086 32,29.9978086 Z M19.9984906,29.9978086 C21.1064151,29.9978086 22,31.6513201 22,30.7105291 C22,29.7661745 21.1064151,29 19.9984906,29 C18.8935849,29 18,29.7661745 18,30.7105291 C18,31.6513201 18.8935849,29.9978086 19.9984906,29.9978086 Z" id="形状"></path>
            </g>
        </g>
    </g>
</svg>