<?xml version="1.0" encoding="UTF-8"?>
<svg width="52px" height="52px" viewBox="0 0 52 52" version="1.1" xmlns="http://www.w3.org/2000/svg" xmlns:xlink="http://www.w3.org/1999/xlink">
    <!-- Generator: Sketch 52.1 (67048) - http://www.bohemiancoding.com/sketch -->
    <title>国际精神心理</title>
    <desc>Created with Sketch.</desc>
    <g id="Page-1" stroke="none" stroke-width="1" fill="none" fill-rule="evenodd">
        <g id="专科诊疗" transform="translate(-40.000000, -612.000000)" fill="#008FB0" fill-rule="nonzero">
            <g id="国际精神心理科" transform="translate(40.000000, 612.000000)">
                <path d="M45.3547595,24.6638103 L49,24.6638103 L49,26.1288452 L44.8008898,26.1288452 C43.2219244,29.8057969 40.2105981,33.5598458 36.1288874,37.3049535 C33.9812346,39.2754976 31.6824334,41.1033974 29.3836856,42.7437071 C28.5790087,43.3178976 27.8314863,43.8278477 27.160063,44.2678248 C26.9245319,44.4221661 26.7151579,44.5568424 26.5343106,44.6711342 C26.4249448,44.7402512 26.3488588,44.787535 26.3084236,44.8122644 L26.001457,45 L25.6951979,44.8110915 C25.6547906,44.7861672 25.5787227,44.7385028 25.4693658,44.6688385 C25.2885104,44.5536271 25.0791204,44.4179033 24.8435663,44.2624061 C24.1720521,43.8191171 23.4244179,43.3056535 22.6196142,42.7279031 C20.3204853,41.0774104 18.0212991,39.2410067 15.8732999,37.2648877 C12.367052,34.0392053 9.64828163,30.8117955 7.94997474,27.6394907 L3,27.6394907 L3,25.8540825 L7.10086403,25.8540825 C6.43882169,24.2572924 6.05035349,22.6774165 5.96582145,21.1218612 C5.95443723,20.9123692 5.94871795,20.7036711 5.94871795,20.4957906 C5.94871795,13.6355938 10.9733856,8 17.1528405,8 C20.7084427,8 23.9482844,9.81291651 25.996607,12.8327538 C28.0406133,9.81291389 31.2810583,8 34.8416283,8 C41.0220269,8 46.0512821,13.6366868 46.0512821,20.4957906 C46.0512821,21.86881 45.8122676,23.2597758 45.3547595,24.6638103 Z M9.30588806,27.6394907 C10.9474893,30.4977961 13.463246,33.4370303 16.6679272,36.3852769 C18.7777445,38.3262694 21.0405046,40.1335787 23.3033221,41.7580043 C24.0951995,42.3264753 24.8301979,42.8312608 25.4892513,43.2663241 C25.6790422,43.3916114 25.8510779,43.5035201 26.0040228,43.6016289 C26.1566798,43.5044647 26.3283504,43.3936368 26.5177065,43.2695536 C27.1764727,42.8378704 27.9111616,42.3366753 28.7027121,41.7718513 C30.9646142,40.1578335 33.2264629,38.3593165 35.3354167,36.4242801 C39.1252275,32.9470005 41.9472267,29.4773961 43.5024254,26.1288452 L31.7005514,26.1288452 L26.9386213,38.3519402 L26.9386213,35.6703121 L30.2135165,24.9685149 L30.2570961,24.9854652 L30.2570961,24.6638103 L44.1039626,24.6638103 C44.6080269,23.246261 44.8717949,21.8539542 44.8717949,20.4957906 C44.8717949,14.2678311 40.3414137,9.19027216 34.8416283,9.19027216 C31.4005759,9.19027216 28.2911887,11.0996414 26.5093548,14.2483509 L25.9979973,15.1519795 L25.4854901,14.2490145 C23.6980111,11.0997303 20.5884791,9.19027216 17.1528405,9.19027216 C11.6542082,9.19027216 7.12820513,14.2665711 7.12820513,20.4957906 C7.12820513,20.6818312 7.13332887,20.8687981 7.14353908,21.0566859 C7.22817662,22.6141826 7.65597883,24.2179901 8.39081967,25.8540825 L12.1798869,25.8540825 L16.8049684,13.9822552 L16.8049684,16.6638833 L13.6153846,27.0868974 L13.6153846,27.6394907 L9.30588806,27.6394907 Z M20.8265706,27.0443546 L20.0798636,27.3347861 L16.8049684,16.632989 L16.8049684,13.9513608 L21.21023,25.2589464 L24.2307692,25.2589464 L24.2307692,26.5956539 L26.9357847,35.6092586 L26.9357847,38.3519402 L22.5372318,27.0443546 L20.8265706,27.0443546 Z" id="合并形状"></path>
            </g>
        </g>
    </g>
</svg>