<?xml version="1.0" encoding="UTF-8"?>
<svg width="52px" height="52px" viewBox="0 0 52 52" version="1.1" xmlns="http://www.w3.org/2000/svg" xmlns:xlink="http://www.w3.org/1999/xlink">
    <!-- Generator: Sketch 52.1 (67048) - http://www.bohemiancoding.com/sketch -->
    <title>国际妇产生殖中心</title>
    <desc>Created with Sketch.</desc>
    <g id="Page-1" stroke="none" stroke-width="1" fill="none" fill-rule="evenodd">
        <g id="专科诊疗" transform="translate(-40.000000, -945.000000)" fill="#008FB0" fill-rule="nonzero">
            <g id="医药-子宫" transform="translate(40.000000, 945.000000)">
                <path d="M42.2334674,12.2932839 L42.1883473,12.3287758 C42.1690101,12.3287758 42.1561186,12.3358741 42.1561186,12.3571693 C38.9074703,15.4591609 35.2785238,15.5514398 31.2692792,12.6127109 C31.249942,12.5701207 31.2177134,12.5275304 31.1661475,12.4991369 C31.082353,12.4352515 30.9856671,12.3784644 30.8631982,12.3287758 C30.843861,12.2719887 30.8116324,12.2293985 30.7665122,12.2152017 C29.4258002,11.3137076 27.8465962,10.8736081 26.0160086,10.8736081 L25.9902257,10.8736081 C24.1596381,10.8736081 22.5804341,11.3137076 21.2397221,12.2152017 C21.194602,12.2293985 21.1559276,12.2719887 21.1430361,12.3287758 C21.027013,12.3784644 20.9238813,12.4352515 20.8400868,12.4991369 C20.8014124,12.5275304 20.7691837,12.5701207 20.7369551,12.6127109 C16.7406019,15.5514398 13.1052098,15.4591609 9.84366996,12.3571693 C9.84366996,12.3358741 9.83722423,12.3287758 9.81788704,12.3287758 L9.78565838,12.2932839 C9.16686822,11.6544298 8.44494637,11.1504449 7.60700136,10.760034 C6.08580889,10.0147042 4.63551945,9.8159496 3.24968732,10.1708686 C1.77361496,10.4902956 0.793863877,11.2782157 0.316879795,12.5417271 L0.27820541,12.5417271 C-0.205224402,13.7768451 -0.0569725928,15.1255371 0.710069376,16.5736064 C1.05813884,17.2266573 1.53512292,17.8229211 2.12168443,18.3623979 C2.21192466,18.4333817 2.30216489,18.5043655 2.38595939,18.5824477 L2.63089716,18.7528088 C3.19167575,19.2425969 3.79757444,19.6684997 4.4357018,20.030517 C4.30034145,20.6835679 4.66774811,21.322422 5.52503031,21.9470793 C6.18894058,22.4794577 7.05911424,22.8627702 8.13555129,23.08282 C8.32892322,23.1254102 8.52229514,23.1609021 8.7221128,23.196394 C9.54072061,23.2957713 10.2884254,23.2389843 10.9652271,23.0402297 C11.7193776,22.8272783 12.2221446,22.4865561 12.4541909,22.0251615 C12.525094,21.8760955 12.5702141,21.7199312 12.5831056,21.5566685 L12.5831056,21.5211766 C12.8087061,21.4643895 13.0343067,21.4288977 13.2792445,21.4147009 C15.0324833,21.0384868 16.908191,20.3854359 18.8870303,19.4484499 C18.9385962,19.6897948 18.9837163,19.9311397 19.0288364,20.1724846 C19.5767235,23.0544264 20.3888856,25.9363683 21.4653226,28.8254086 C21.3815281,30.4722325 21.5942373,32.1261548 22.0970043,33.7658804 C22.4257365,36.4845595 22.3032677,38.9902873 21.7231519,41.2830637 C21.6909232,41.4392281 21.7038147,41.5811956 21.768272,41.7302616 C21.8262836,41.850934 21.9229695,41.9290162 22.0583299,41.9787049 C22.1292329,42.0070984 22.200136,42.0070984 22.2903762,41.9787049 C22.3354963,41.9503113 22.3870622,41.9219178 22.4579652,41.9006227 C22.5288682,41.8651308 22.5804341,41.8012454 22.6126627,41.7302616 C22.6448914,41.6734746 22.6706743,41.6237859 22.6900115,41.5669989 C23.2830187,39.1322549 23.4183791,36.4774611 23.0896468,33.6239128 C23.0896468,33.5671257 23.0767554,33.5316339 23.0445267,33.5103387 C22.5417597,31.9344986 22.3483878,30.3515601 22.4579652,28.7544248 C22.4579652,28.683441 22.4515195,28.6124572 22.4321823,28.534375 C21.4137568,25.8227943 20.6273776,23.1112135 20.0794905,20.3996327 C20.2986454,20.5912889 20.5435831,20.7900435 20.8078581,21.0171917 C21.9036323,21.8335053 23.1863328,22.3516869 24.6430679,22.578835 C25.049149,22.6214253 25.5003501,22.6427205 25.9902257,22.6427205 L26.0160086,22.6427205 C28.0399681,22.6427205 29.767424,22.0961453 31.1983762,21.0171917 C31.4690969,20.7900435 31.7075889,20.5912889 31.9267438,20.3996327 C31.8429493,20.8113387 31.7591548,21.2159463 31.6689146,21.6276523 C31.5399999,22.1600307 31.4046396,22.6924091 31.2692792,23.2247875 C30.8116324,24.9922839 30.2508538,26.7668787 29.5869435,28.534375 C29.5611606,28.6124572 29.5482691,28.683441 29.5482691,28.7544248 C29.6642923,30.3515601 29.4644746,31.9344986 28.9617076,33.5103387 C28.9423704,33.5316339 28.9294789,33.5671257 28.9294789,33.6239128 C28.5943009,36.4774611 28.7232156,39.1322549 29.3162228,41.5669989 C29.3613429,41.7231632 29.4451374,41.8296389 29.5482691,41.9006227 C29.599835,41.9219178 29.6514008,41.9503113 29.7158581,41.9787049 C29.7867611,42.0070984 29.8641099,42.0070984 29.9479044,41.9787049 C30.0188075,41.9503113 30.0703733,41.9219178 30.102602,41.9006227 C30.1541678,41.8651308 30.1992879,41.8012454 30.2508538,41.7302616 C30.3153111,41.5811956 30.3282025,41.4392281 30.2830824,41.2830637 C30.0381447,40.3389793 29.8898928,39.3665014 29.8189898,38.3798267 C29.6836295,36.9317574 29.7158581,35.3914091 29.9221215,33.7658804 C30.4248885,32.1261548 30.6311519,30.4722325 30.5409117,28.8254086 C31.346628,26.660403 32.0105383,24.5024958 32.5133053,22.3587853 C32.6680028,21.7057344 32.8098089,21.0526836 32.951615,20.3996327 C33.0160723,20.0802056 33.0676381,19.7607786 33.119204,19.4484499 C33.2094442,19.4910402 33.2996845,19.5407288 33.4092619,19.5975159 C35.4332214,20.5416003 37.3540491,21.173356 39.1588538,21.4856847 C39.249094,21.4856847 39.3328885,21.4998814 39.416683,21.5211766 L39.416683,21.5566685 C39.5069232,22.259408 40.0483646,22.7562945 41.0410072,23.0402297 C41.3955224,23.1467054 41.7564833,23.2034924 42.1303357,23.2247875 C42.6717771,23.2460827 43.2583386,23.196394 43.8835745,23.08282 C44.9535658,22.8627702 45.8172937,22.4794577 46.4747583,21.9470793 C46.9001765,21.6631442 47.1966801,21.3579139 47.3707149,21.0455852 C47.5705325,20.704863 47.6349898,20.3712392 47.5705325,20.030517 C47.5898697,20.030517 47.6156526,20.0234186 47.6414355,19.9879267 C48.25378,19.6330078 48.8403415,19.2142034 49.3946743,18.7528088 L49.6202749,18.5824477 C49.7105151,18.5043655 49.7878639,18.4333817 49.8781041,18.3623979 C50.4711114,17.8229211 50.9480955,17.2266573 51.3026107,16.5736064 C51.7215832,15.7998831 51.9471837,15.0616517 51.9858581,14.3589122 C52.037424,13.7271564 51.9471837,13.1237942 51.7280289,12.5417271 L51.702246,12.5417271 C51.2123704,11.2782157 50.2326193,10.4902956 48.756547,10.1708686 C47.3707149,9.8159496 45.9204254,10.0147042 44.3992329,10.760034 C43.5677337,11.1504449 42.8458118,11.6544298 42.2334674,12.2932839 Z M43.0336425,13.2063033 C43.5652615,12.6368649 44.1844412,12.1899639 44.8849274,11.843976 C46.1483043,11.2024569 47.3679008,11.0294629 48.5374625,11.3249942 C49.6194635,11.577277 50.3512214,12.1611316 50.7202275,13.090974 L50.7514992,13.1414305 C51.0642163,14.0712729 50.9328751,15.0948204 50.3574757,16.2048648 C50.0760304,16.7382627 49.7070243,17.2356203 49.244203,17.6825213 L49.2004227,17.7113536 C49.1503879,17.7546021 49.0690815,17.8122668 48.9752664,17.8915556 L48.7938905,18.0573415 C48.2560172,18.5114506 47.6993808,18.9151031 47.1302358,19.2538829 C46.8675535,18.9871839 46.47353,18.7781496 45.941911,18.6339879 C45.1913901,18.4177455 44.2970194,18.4033294 43.2525444,18.5979475 C42.2268325,18.821398 41.3574791,19.2034263 40.6569929,19.7368243 C40.2879868,20.0395637 40.0253045,20.342303 39.8626916,20.6666667 C38.3178694,20.4215919 36.6854864,19.9314424 34.9592883,19.1890101 C34.65908,19.0448485 34.365126,18.907895 34.0649176,18.7925657 C33.9585938,18.7132768 33.833507,18.6484041 33.7084202,18.5979475 C33.7522005,18.2952082 33.7834722,18.014093 33.8022353,17.747394 L33.8022353,17.6825213 L33.833507,17.6032324 C33.8585243,17.5023193 33.871033,17.4230304 33.871033,17.3437415 C33.889796,17.2716607 33.9023047,17.1995799 33.9023047,17.1274991 L33.9023047,16.9472971 C33.9023047,16.2985698 33.7959809,15.6930911 33.5833333,15.1308608 C36.9982035,16.8031355 40.1316283,16.1904486 42.9961164,13.2855921 L42.9961164,13.2567598 L43.0336425,13.2063033 Z M46.5833333,20.1921064 C46.5833333,20.3372553 46.4752252,20.5005479 46.2657658,20.6940798 C46.1576577,20.7727021 46.0292793,20.8573723 45.8941441,20.9359946 C45.286036,21.3351542 44.5157658,21.6012605 43.5765766,21.7403616 C42.8873874,21.8431754 42.2522523,21.8734148 41.6779279,21.8371275 C41.4481982,21.8068882 41.2387387,21.7766488 41.0495495,21.7403616 C40.8333333,21.6798829 40.6779279,21.625452 40.5630631,21.5831169 C40.3198198,21.4561116 40.1576577,21.3170106 40.0833333,21.1779095 L40.1171171,21.2202446 C40.0968468,21.1295265 40.0968468,21.0569521 40.1171171,21.0025212 C40.2387387,20.7968936 40.4414414,20.5973138 40.731982,20.4098298 C41.3873874,20.0167181 42.1779279,19.7445639 43.1238739,19.599415 C44.0968468,19.4421703 44.9279279,19.4421703 45.6238739,19.599415 C45.8198198,19.647798 46.0022523,19.7022288 46.1779279,19.7687554 C46.3603604,19.8171384 46.481982,19.9078564 46.5563063,20.0348617 C46.5698198,20.0771969 46.5833333,20.1316277 46.5833333,20.1921064 Z M18.4166667,15.1308608 C18.2037592,15.6930911 18.0973054,16.2985698 18.0973054,16.9472971 L18.0973054,17.1274991 C18.0973054,17.1995799 18.1035674,17.2716607 18.1223534,17.3437415 C18.1223534,17.4230304 18.1411393,17.5023193 18.1661873,17.6032324 L18.1974972,17.6825213 L18.1974972,17.747394 C18.2162832,18.014093 18.2475931,18.2952082 18.291427,18.5979475 C16.0872084,19.6791596 14.0395394,20.3711354 12.135896,20.6666667 C11.9668225,20.342303 11.6975571,20.0395637 11.340624,19.7368243 C10.6330197,19.2034263 9.76886583,18.821398 8.74816233,18.5979475 C7.69614891,18.4033294 6.79442312,18.4177455 6.04298495,18.6339879 C5.51071626,18.7781496 5.11621122,18.9871839 4.85320787,19.2538829 C4.27710528,18.9151031 3.72605063,18.5114506 3.19378193,18.0573415 L3.00592239,17.8915556 C2.95582651,17.8699314 2.9182546,17.8483072 2.90573063,17.8266829 C2.85563476,17.7762264 2.81806285,17.7401859 2.78049094,17.7113536 L2.73665705,17.6825213 C2.27327018,17.2356203 1.90381309,16.7382627 1.62202378,16.2048648 C1.04592119,15.0948204 0.933205463,14.0568568 1.27761462,13.090974 C1.63454775,12.1611316 2.36093797,11.577277 3.44426132,11.3249942 C4.62777642,11.0294629 5.84260145,11.2024569 7.10126036,11.843976 C7.80886463,12.1899639 8.42880111,12.6368649 8.9673318,13.2063033 L8.99864172,13.2567598 L8.99864172,13.2855921 C11.8541067,16.1904486 14.997623,16.8031355 18.4166667,15.1308608 Z M21.3220676,13.8851633 C21.3414513,13.8571115 21.3672962,13.8290598 21.3866799,13.808021 C21.4512922,13.7308788 21.5417495,13.6747754 21.6580517,13.6186719 C21.6774354,13.5976331 21.6968191,13.5765943 21.7097416,13.5555556 C22.9309145,12.7701074 24.3588469,12.3703704 25.9870775,12.3703704 L26.0129225,12.3703704 C27.6411531,12.3703704 29.0690855,12.7701074 30.2902584,13.5555556 C30.3031809,13.5765943 30.3290258,13.5976331 30.3548708,13.6186719 C30.4647117,13.6747754 30.5487078,13.7308788 30.6133201,13.808021 C30.639165,13.8290598 30.6585487,13.8571115 30.6908549,13.8851633 L30.7166998,13.9202279 C31.3111332,14.3410037 31.7634195,14.8319088 32.0670974,15.3789174 C32.3578529,15.9119001 32.5,16.4869603 32.5,17.118124 C32.5,17.2163051 32.4935388,17.3004602 32.4676938,17.3986412 L32.4676938,17.5739645 C32.4224652,17.623055 32.3966203,17.6791584 32.3966203,17.7563007 L32.3966203,17.7843524 C32.3643141,18.0788955 32.2867793,18.3664256 32.1704771,18.6469428 L32.1446322,18.6960333 C31.8538767,19.3201841 31.3563618,19.8882314 30.6456262,20.4142012 C29.3663022,21.3679597 27.8285288,21.8518519 26.0129225,21.8518519 L25.9870775,21.8518519 C24.1714712,21.8518519 22.6336978,21.3679597 21.3543738,20.4142012 C21.2897614,20.3721236 21.2186879,20.3230331 21.1476143,20.2739426 C20.5596421,19.7900504 20.1267396,19.2640806 19.8553678,18.6960333 L19.8295229,18.6469428 C19.7907555,18.527723 19.7519881,18.4155161 19.7002982,18.2822704 C19.6550696,18.120973 19.6227634,17.9526627 19.5969185,17.7843524 L19.5969185,17.7563007 C19.5969185,17.6791584 19.5775348,17.623055 19.5258449,17.5739645 L19.5258449,17.3986412 C19.5064612,17.3004602 19.5,17.2163051 19.5,17.118124 L19.5,16.9568266 C19.5646123,15.7435897 20.1590457,14.7267149 21.2833002,13.9202279 L21.3220676,13.8851633 Z M9.77930975,19.7932927 C10.3339403,19.9325481 10.8276968,20.138404 11.267343,20.4108604 C11.5717135,20.5985526 11.7746271,20.7983539 11.8896115,21.0042098 C11.9099029,21.0587011 11.9099029,21.1313561 11.8896115,21.2221749 L11.9166667,21.1858474 C11.9031391,21.2100657 11.8896115,21.2403387 11.8896115,21.2766662 C11.7340444,21.4643584 11.4229102,21.6217776 10.9562088,21.7428693 C10.2121922,21.8881794 9.37348248,21.8881794 8.4265522,21.7428693 C7.75017343,21.6399413 7.17525147,21.4704129 6.69502255,21.2524479 C6.48534513,21.1676836 6.28919528,21.0647557 6.10657301,20.9376094 C5.64663545,20.6712076 5.41666667,20.4229696 5.41666667,20.1928953 C5.41666667,20.1505132 5.42343045,20.1081311 5.44372182,20.0718036 L5.44372182,20.0354761 C5.58576136,19.8296202 5.89689559,19.6843101 6.37712452,19.5995459 C7.07379466,19.4421267 7.90574055,19.4421267 8.87296219,19.5995459 C9.17733264,19.6479826 9.48170309,19.7085285 9.77930975,19.7932927 Z" id="形状"></path>
            </g>
        </g>
    </g>
</svg>