<?xml version="1.0" encoding="UTF-8"?>
<svg width="42px" height="38px" viewBox="0 0 42 38" version="1.1" xmlns="http://www.w3.org/2000/svg" xmlns:xlink="http://www.w3.org/1999/xlink">
    <!-- Generator: Sketch 52.1 (67048) - http://www.bohemiancoding.com/sketch -->
    <title>图文咨询</title>
    <desc>Created with Sketch.</desc>
    <g id="Page-1" stroke="none" stroke-width="1" fill="none" fill-rule="evenodd">
        <g id="icon状态" transform="translate(-301.000000, -57.000000)" fill="#999999" fill-rule="nonzero">
            <g id="comment" transform="translate(301.000000, 57.000000)">
                <path d="M23.6210937,15.0898437 C22.6285156,15.0898437 21.859375,15.8589844 21.859375,16.8085937 C21.859375,17.7582031 22.6285156,18.5273437 23.6210937,18.5273437 C24.5277344,18.5273437 25.296875,17.7582031 25.296875,16.8085937 C25.296875,15.8589844 24.5277344,15.0898437 23.6210937,15.0898437 Z M11.5898437,15.0898437 C10.5972656,15.0898437 9.828125,15.8589844 9.828125,16.8085937 C9.828125,17.7582031 10.5972656,18.5273437 11.5898437,18.5273437 C12.4964844,18.5273437 13.265625,17.7582031 13.265625,16.8085937 C13.265625,15.8589844 12.4964844,15.0898437 11.5898437,15.0898437 Z M37.4140625,11.8242187 C35.3472656,8.98828125 32.4597656,7.09335937 29.2929687,6.23828125 L29.2929687,6.24257812 C28.5582031,5.42617187 27.7289062,4.67421875 26.8007812,4.00390625 C19.7667969,-1.109375 9.89257812,0.450390625 4.7578125,7.484375 C0.619921875,13.1992187 0.79609375,20.8863281 5.015625,26.3476562 L5.05,32.0453125 C5.05,32.1828125 5.07148437,32.3203125 5.11445312,32.4492187 C5.3421875,33.1753906 6.115625,33.575 6.8375,33.3472656 L12.2773437,31.6328125 C13.7167969,32.1441406 15.2035156,32.4363281 16.6816406,32.5179687 L16.6601562,32.5351562 C20.4886719,35.3238281 25.5074219,36.1617187 30.109375,34.640625 L35.5707031,36.4195312 C35.7082031,36.4625 35.85,36.4882812 35.9960937,36.4882812 C36.7566406,36.4882812 37.3710937,35.8738281 37.3710937,35.1132812 L37.3710937,29.3554687 C41.1566406,24.2164062 41.2554687,17.1136719 37.4140625,11.8242187 Z M12.8789062,28.5820312 L12.3632812,28.3671875 L8.109375,29.6992187 L8.06640625,25.2304687 L7.72265625,24.84375 C4.0875,20.409375 3.846875,14.0199219 7.25,9.33203125 C11.3921875,3.6515625 19.3328125,2.396875 24.9960937,6.49609375 C30.6765625,10.6253906 31.9355469,18.553125 27.8320312,24.1992187 C24.3902344,28.9214844 18.2285156,30.6660156 12.8789062,28.5820312 Z M34.578125,27.8515625 L34.234375,28.28125 L34.2773437,32.75 L30.0664062,31.3320312 L29.5507812,31.546875 C27.1445312,32.440625 24.5792969,32.5136719 22.203125,31.8476562 L22.1945312,31.8433594 C25.3699219,30.8679687 28.2488281,28.8914062 30.3242187,26.046875 C33.6070312,21.5222656 34.1398437,15.8375 32.2320312,10.990625 L32.2578125,11.0078125 C33.2460937,11.7167969 34.1527344,12.6019531 34.921875,13.671875 C38.0414062,17.9515625 37.8652344,23.778125 34.578125,27.8515625 Z M17.6054687,15.0898437 C16.6128906,15.0898437 15.84375,15.8589844 15.84375,16.8085937 C15.84375,17.7582031 16.6128906,18.5273437 17.6054687,18.5273437 C18.5121094,18.5273437 19.28125,17.7582031 19.28125,16.8085937 C19.28125,15.8589844 18.5121094,15.0898437 17.6054687,15.0898437 Z" id="形状"></path>
            </g>
        </g>
    </g>
</svg>