<?xml version="1.0" encoding="UTF-8"?>
<svg width="40px" height="40px" viewBox="0 0 40 40" version="1.1" xmlns="http://www.w3.org/2000/svg" xmlns:xlink="http://www.w3.org/1999/xlink">
    <!-- Generator: Sketch 52.1 (67048) - http://www.bohemiancoding.com/sketch -->
    <title>外科</title>
    <desc>Created with Sketch.</desc>
    <g id="Page-1" stroke="none" stroke-width="1" fill="none" fill-rule="evenodd">
        <g id="我的报告-copy-2" transform="translate(-40.000000, -386.000000)" fill="#008FB0" fill-rule="nonzero">
            <g id="创可贴" transform="translate(40.000000, 386.000000)">
                <path d="M29.1233933,20 L33.8663239,24.7441502 C34.622108,25.5001286 35,26.491386 35,27.4787863 C35,28.4700437 34.622108,29.4613011 33.8663239,30.2172795 L30.218509,33.8660324 C29.4627249,34.6220108 28.4717224,35 27.4807198,35 C26.4897172,35 25.4987147,34.6220108 24.7429306,33.8660324 L20,29.1218822 L21.0951157,28.026485 L25.8380463,32.7706351 C26.2892031,33.2219079 26.8868895,33.4494729 27.4807198,33.4494729 C28.0745501,33.4494729 28.6683805,33.2219079 29.1233933,32.7706351 L32.7712082,29.1218822 C33.2262211,28.6706094 33.4498715,28.0727693 33.4498715,27.4787863 C33.4498715,26.8848033 33.222365,26.2908203 32.7712082,25.8395474 L28.0282776,21.0953973 L29.1233933,20 Z M15.7078652,10.2915888 C15.3146067,9.90280374 14.6816479,9.90280374 14.2921348,10.2915888 C13.9026217,10.6841121 13.9026217,11.3158879 14.2921348,11.7084112 C14.6853933,12.0971963 15.3183521,12.0971963 15.7078652,11.7084112 C16.0973783,11.3158879 16.0973783,10.6841121 15.7078652,10.2915888 Z M11.7082749,14.2917251 C11.3193081,13.9027583 10.683497,13.9027583 10.2945302,14.2917251 C9.90182328,14.6806919 9.90182328,15.316503 10.2945302,15.7054698 C10.687237,16.0981767 11.3193081,16.0981767 11.7082749,15.7054698 C12.0972417,15.316503 12.0972417,14.684432 11.7082749,14.2917251 Z M11.7082749,10.2941176 C11.3193081,9.90196078 10.683497,9.90196078 10.2945302,10.2941176 C9.90182328,10.6825397 9.90182328,11.3174603 10.2945302,11.7058824 C10.683497,12.0980392 11.3193081,12.0980392 11.7082749,11.7058824 C12.0972417,11.3174603 12.0972417,10.6862745 11.7082749,10.2941176 Z M29.7082749,24.2917251 C29.315568,23.9027583 28.683497,23.9027583 28.2945302,24.2917251 C27.9018233,24.6806919 27.9018233,25.316503 28.2945302,25.7054698 C28.683497,26.0981767 29.3193081,26.0981767 29.7082749,25.7054698 C30.0972417,25.316503 30.0972417,24.684432 29.7082749,24.2917251 Z M25.708809,28.2941131 C25.5211828,28.1058423 25.266188,28 25.0002329,28 C24.7342777,28 24.4792829,28.1058423 24.2916567,28.2941131 C23.9027811,28.6825362 23.9027811,29.3174585 24.2916567,29.7058816 C24.6842715,30.0980395 25.3161943,30.0980395 25.7050698,29.7058816 C26.0976846,29.3174585 26.0976846,28.686271 25.708809,28.2941131 Z M29.7082741,28.2915888 C29.3155662,27.9028037 28.6834935,27.9028037 28.2945256,28.2915888 C28.1059907,28.4791713 28,28.7341068 28,29 C28,29.2658932 28.1059907,29.5208287 28.2945256,29.7084112 C28.6834935,30.0971963 29.3193063,30.0971963 29.7082741,29.7084112 C30.097242,29.3158879 30.097242,28.6841121 29.7082741,28.2915888 Z M6.13367609,15.2570694 L10.8766067,20 L11.9717224,18.9048843 L7.22879177,14.1619537 C6.77377892,13.7069409 6.55012853,13.1131105 6.55012853,12.5192802 C6.55012853,11.9254499 6.77763496,11.3316195 7.22879177,10.8766067 L10.8766067,7.22879177 C11.3316195,6.77377892 11.9254499,6.54627249 12.5192802,6.54627249 C13.1131105,6.54627249 13.7069409,6.77377892 14.1619537,7.22879177 L18.9048843,11.9717224 L20,10.8766067 L15.2570694,6.13367609 C14.5012853,5.37789203 13.5102828,5 12.5192802,5 C11.5282776,5 10.5372751,5.37789203 9.781491,6.13367609 L6.13367609,9.781491 C5.37789203,10.5372751 5,11.5282776 5,12.5154242 C5,13.5102828 5.37789203,14.5012853 6.13367609,15.2570694 Z M17.9992953,26 L14,22.0007047 L15.0007047,21 L19,24.9992953 L17.9992953,26 Z M22.0007047,14 L26,17.9992953 L24.9992953,19 L21,15.0007047 L22.0007047,14 Z M28.2917251,10.2945302 C28.6806919,9.90182328 29.316503,9.90182328 29.7054698,10.2945302 C30.0981767,10.683497 30.0981767,11.3193081 29.7054698,11.7082749 C29.312763,12.0972417 28.6806919,12.0972417 28.2917251,11.7082749 C27.9027583,11.3193081 27.9027583,10.687237 28.2917251,10.2945302 Z M28.2917251,14.2917251 C28.6806919,13.9027583 29.316503,13.9027583 29.7054698,14.2917251 C30.0981767,14.6806919 30.0981767,15.316503 29.7054698,15.7054698 C29.312763,16.0981767 28.6806919,16.0981767 28.2917251,15.7054698 C27.9027583,15.316503 27.9027583,14.684432 28.2917251,14.2917251 Z M24.2921348,10.2915888 C24.6853933,9.90280374 25.3183521,9.90280374 25.7078652,10.2915888 C26.0973783,10.6841121 26.0973783,11.3158879 25.7078652,11.7084112 C25.3146067,12.0971963 24.6816479,12.0971963 24.2921348,11.7084112 C23.9026217,11.3158879 23.9026217,10.6841121 24.2921348,10.2915888 Z M10.2945256,28.2915888 C10.1059907,28.4791713 10,28.7341068 10,29 C10,29.2658932 10.1059907,29.5208287 10.2945256,29.7084112 C10.6872335,30.0971963 11.3193063,30.0971963 11.7082741,29.7084112 C12.097242,29.3158879 12.097242,28.6841121 11.7082741,28.2915888 C11.3193063,27.9028037 10.6872335,27.9028037 10.2945256,28.2915888 Z M14.2921348,28.2917251 C13.9026217,28.6806919 13.9026217,29.316503 14.2921348,29.7054698 C14.6853933,30.0981767 15.3183521,30.0981767 15.7078652,29.7054698 C16.0973783,29.316503 16.0973783,28.6806919 15.7078652,28.2917251 C15.3183521,27.9027583 14.6853933,27.9027583 14.2921348,28.2917251 Z M10.2941176,24.2917251 C9.90196078,24.6806919 9.90196078,25.316503 10.2941176,25.7054698 C10.6862745,26.0981767 11.3174603,26.0981767 11.7058824,25.7054698 C12.0980392,25.316503 12.0980392,24.6806919 11.7058824,24.2917251 C11.3174603,23.9027583 10.6862745,23.9027583 10.2941176,24.2917251 Z M33.2186186,14.3349255 C34.2604605,13.2929351 34.2604605,11.6001996 33.2186186,10.5582092 L29.4424407,6.78149284 C28.4005988,5.73950239 26.7081046,5.73950239 25.6662627,6.78149284 L6.78138142,25.6650745 C5.73953953,26.7070649 5.73953953,28.3998004 6.78138142,29.4417908 L10.5575593,33.2185072 C11.5994012,34.2604976 13.2918954,34.2604976 14.3337373,33.2185072 L33.2186186,14.3349255 Z" id="形状"></path>
            </g>
        </g>
    </g>
</svg>