<?xml version="1.0" encoding="UTF-8"?>
<svg width="52px" height="52px" viewBox="0 0 52 52" version="1.1" xmlns="http://www.w3.org/2000/svg" xmlns:xlink="http://www.w3.org/1999/xlink">
    <!-- Generator: Sketch 52.1 (67048) - http://www.bohemiancoding.com/sketch -->
    <title>大白安心美国儿科</title>
    <desc>Created with Sketch.</desc>
    <g id="Page-1" stroke="none" stroke-width="1" fill="none" fill-rule="evenodd">
        <g id="专科诊疗" transform="translate(-40.000000, -279.000000)" fill="#008FB0" fill-rule="nonzero">
            <g id="大白安心美国儿科" transform="translate(40.000000, 279.000000)">
                <path d="M10.0014521,15.037196 C10.2115601,14.7187046 10.6352054,14.6341165 10.9476903,14.8482632 C11.2601751,15.06241 11.3431679,15.4941985 11.1330599,15.8126899 C9.06677774,18.9448547 7.94579953,22.6358562 7.94579953,26.5 C7.94579953,27.3116269 7.50866542,27.6162785 6.63407512,27.8595093 C6.62855983,27.8610431 6.45090677,27.9098721 6.40064207,27.9241281 C6.31736905,27.9477457 6.24943961,27.9683878 6.18648083,27.9895233 C5.50983727,28.2166754 5.2730489,28.5692092 5.38620414,29.7355471 C5.49917653,30.9000004 5.93095164,31.4082763 6.76604019,31.702661 C6.88882387,31.7459446 7.02083046,31.7850962 7.17945175,31.8264072 C7.27895347,31.8523212 7.64900324,31.9425292 7.61250884,31.9334735 C8.43530411,32.1376411 8.81918622,32.3291767 9.01909136,32.905044 C11.6419699,40.4607762 18.6434638,45.6101695 26.5986044,45.6101695 C34.9578364,45.6101695 41.9098038,40.6276978 44.2947195,32.9276369 C44.4194647,32.5248783 44.7001842,32.2789608 45.1620081,32.0265603 C45.2727534,31.9660346 46.0597251,31.5842948 46.2881497,31.4534592 C47.2009904,30.9306083 47.6363808,30.3172206 47.6363808,29.2317358 C47.6363808,28.2371244 47.432626,27.9543529 46.9489077,27.8219835 C46.8468994,27.7940689 46.8015384,27.7851903 46.5338635,27.7375152 C45.6935058,27.5878404 45.2514092,27.320811 45.2514092,26.5 C45.2514092,15.9449688 36.8994984,7.38983051 26.5986044,7.38983051 C22.9014772,7.38983051 19.3660823,8.49320618 16.3462607,10.5327047 C16.0323665,10.7446995 15.6092904,10.6572026 15.4012936,10.3372748 C15.1932968,10.017347 15.2791436,9.58613852 15.5930378,9.37414364 C18.8344241,7.18500695 22.6313787,6 26.5986044,6 C37.6016192,6 46.5298483,15.0919414 46.6144225,26.3388125 C46.654607,26.3472987 46.7054602,26.3571862 46.7685978,26.3684315 C47.0846079,26.4247155 47.1442931,26.4363979 47.3025015,26.4796916 C48.3935885,26.7782673 49,27.6198472 49,29.2317358 C49,30.878646 48.2634454,31.9163207 46.9562019,32.6650751 C46.6773854,32.8247738 45.8739165,33.214516 45.8064129,33.2514087 C45.6370218,33.343986 45.5803354,33.3936448 45.5950839,33.346027 C43.0277066,41.6351923 35.5422716,47 26.5986044,47 C18.0669678,47 10.5591102,41.483077 7.74014428,33.3875503 C7.75549447,33.423561 7.76863969,33.4377512 7.74705326,33.4269808 C7.66341908,33.385252 7.53021169,33.3434793 7.28994506,33.2838598 C7.33604303,33.2952985 6.95335224,33.2020089 6.84185851,33.1729717 C6.64952193,33.12288 6.48290158,33.0734625 6.3203116,33.0161463 C5.00324012,32.5518534 4.19709888,31.6028822 4.02920302,29.8723099 C3.8518668,28.044432 4.48879461,27.0961648 5.75988581,26.6694543 C5.8456026,26.6406789 5.93292153,26.6141448 6.03507921,26.585171 C6.09159251,26.5691429 6.27424043,26.518941 6.27511663,26.5186974 C6.42585491,26.4767758 6.52257212,26.445217 6.58233014,26.4199456 C6.59772383,22.3065177 7.79931594,18.3752945 10.0014521,15.037196 Z M25.4113134,20.8396843 C27.4240743,20.2693899 29.1264488,19.3775766 30.1041662,18.2123172 C31.1043669,17.0202616 31.4736882,15.4887912 31.1761951,14.4066672 C30.9481086,13.5770083 30.5050452,13.4025734 29.7615036,13.9870209 C29.4633238,14.2213998 29.0351829,14.1650326 28.8052243,13.8611212 C28.5752656,13.5572099 28.6305698,13.1208393 28.9287496,12.8864604 C30.4660373,11.6781029 32.0092354,12.2856626 32.489243,14.0316788 C32.9129124,15.572766 32.4288133,17.5801873 31.1405056,19.1156134 C29.951304,20.5329232 28.026604,21.541205 25.7765435,22.1787355 C24.9843864,22.4031847 24.2029431,22.5624382 23.5943169,22.6370911 C23.3205677,22.6706687 23.1007258,22.6846569 22.9490199,22.6748453 C22.8842411,22.6706558 22.8246637,22.6624361 22.7610065,22.6451967 C22.5434307,22.5862735 22.3669048,22.4804534 22.2678383,22.1837752 C22.1388474,21.797481 22.3009794,21.5407643 22.5301009,21.3744496 C22.5942334,21.327897 22.6555563,21.2969761 22.7253204,21.2690024 C23.3713627,21.0099555 23.8071084,20.4577556 23.7280432,19.8913363 C23.7010625,19.6980484 23.6532995,19.585523 23.5431587,19.4375891 C23.472805,19.3430948 22.9883469,18.7989628 22.8187529,18.5887327 C22.4071068,18.0784527 22.0180323,17.4892073 21.602571,16.7087756 C20.5463305,14.7246594 21.0086474,13.1363578 22.9317336,12.3677697 C23.282298,12.2276618 23.6779244,12.4037331 23.81539,12.761036 C23.9528556,13.1183389 23.7801049,13.5215701 23.4295405,13.661678 C22.3084605,14.1097332 22.1182535,14.7631941 22.8011312,16.0459595 C23.175214,16.748663 23.515667,17.264272 23.8720521,17.70605 C24.0056025,17.8716002 24.5149753,18.4437157 24.6294281,18.597441 C24.8763391,18.9290756 25.0174934,19.2616225 25.0780679,19.695575 C25.1418912,20.1528022 25.0774343,20.5839372 24.9162111,20.9713606 C25.0792831,20.9307854 25.244964,20.8868176 25.4113134,20.8396843 Z M18.5620014,36.413591 C18.2735997,36.1668284 18.2360718,35.7284981 18.4781806,35.4345528 C18.7202894,35.1406075 19.1503531,35.1023583 19.4387548,35.3491208 C21.4867169,37.1014002 23.6191808,37.9661017 25.8553764,37.9661017 C28.1072136,37.9661017 30.4617019,37.0891519 32.9247238,35.3139692 C33.2321731,35.0923801 33.6576557,35.1667744 33.8750657,35.4801335 C34.0924756,35.7934925 34.0194844,36.2271537 33.7120351,36.4487427 C31.0327762,38.3797747 28.411929,39.3559322 25.8553764,39.3559322 C23.2831821,39.3559322 20.8456471,38.3675263 18.5620014,36.413591 Z M20.0230925,30.3220339 C19.0817098,30.3220339 18.3185685,29.5442235 18.3185685,28.5847458 C18.3185685,27.625268 19.0817098,26.8474576 20.0230925,26.8474576 C20.9644751,26.8474576 21.7276164,27.625268 21.7276164,28.5847458 C21.7276164,29.5442235 20.9644751,30.3220339 20.0230925,30.3220339 Z M32.2956651,30.3220339 C31.3542824,30.3220339 30.5911411,29.5442235 30.5911411,28.5847458 C30.5911411,27.625268 31.3542824,26.8474576 32.2956651,26.8474576 C33.2370477,26.8474576 34.000189,27.625268 34.000189,28.5847458 C34.000189,29.5442235 33.2370477,30.3220339 32.2956651,30.3220339 Z" id="合并形状"></path>
            </g>
        </g>
    </g>
</svg>