<?xml version="1.0" encoding="UTF-8"?>
<svg width="40px" height="40px" viewBox="0 0 40 40" version="1.1" xmlns="http://www.w3.org/2000/svg" xmlns:xlink="http://www.w3.org/1999/xlink">
    <!-- Generator: Sketch 52.1 (67048) - http://www.bohemiancoding.com/sketch -->
    <title>妇科 (6)</title>
    <desc>Created with Sketch.</desc>
    <g id="Page-1" stroke="none" stroke-width="1" fill="none" fill-rule="evenodd">
        <g id="我的报告-copy-2" transform="translate(-40.000000, -498.000000)" fill="#008FB0" fill-rule="nonzero">
            <g id="妇科-(6)" transform="translate(40.000000, 498.000000)">
                <path d="M31.7837045,6.51527545 C31.7837045,6.51527545 33.2199539,7.72936451 33.9384904,8.33618956 C32.7686635,9.69202999 31.5988683,11.0482153 30.4291997,12.4040557 C30.4420268,12.4191684 30.4551705,12.4344064 30.4679659,12.4498326 C31.9782956,13.7243094 33.489322,14.9992252 35,16.273702 C34.148664,17.261478 33.2968212,18.2493794 32.4454852,19.237124 C32.2349949,19.4808386 32.0246946,19.7246785 31.8143627,19.9683617 C31.7835461,20.0062373 31.6766857,20.1868363 31.6217353,20.1817256 C30.1008059,18.8967852 28.5798028,17.6119302 27.0587262,16.3271606 C26.2840991,17.2258285 25.5094404,18.1249982 24.7349716,19.0237915 C24.9255087,19.3353874 25.1513915,19.6328427 25.3427521,19.9532805 C25.834424,20.7760091 26.1798358,21.72685 26.4509458,22.7641967 C26.9669416,24.740846 26.723386,27.2422357 26.1196595,28.9114592 C24.9376707,32.1827774 22.5565269,34.4628393 19.1330349,35.5162392 C18.6183377,35.6743573 18.0609787,35.7703632 17.4788206,35.8819521 C17.1888977,35.9069725 16.899133,35.9321811 16.6091784,35.9580482 C16.3072518,36.0057062 15.7633532,36.0187182 15.454934,35.9655731 C15.1244395,35.9087597 14.8109844,35.9467921 14.5007915,35.8893202 C13.8250752,35.7641238 13.19769,35.6562347 12.6001078,35.4704937 C10.9895689,34.969457 9.80643984,34.1714667 8.63727804,33.2461478 C8.28100279,32.9641187 7.93692114,32.6016353 7.65228734,32.2481505 C7.42076701,31.9607912 7.16942019,31.6846566 6.95212047,31.3798018 C6.1144033,30.2056891 5.55951464,28.8738972 5.19769683,27.212857 C4.96839353,26.1618714 4.92009415,24.6181892 5.15132943,23.5183855 C5.30699596,22.7789644 5.45845016,22.0901173 5.71321753,21.4541017 C6.95747299,18.3476428 9.22931763,16.1467184 12.5540572,15.1008435 C14.2118187,14.5794267 16.6494015,14.4500601 18.4866467,14.9104621 C19.0897397,15.0615256 19.6828878,15.2286423 20.2100954,15.4667131 C20.3103047,15.5116747 20.7244442,15.7238785 20.7795847,15.6949702 C21.5543878,14.7937269 22.3289727,13.8922998 23.1033393,12.9906888 C21.5800242,11.7036704 20.0562024,10.4158995 18.532729,9.12872427 C19.6561252,7.82377136 20.7795847,6.51816002 21.9032025,5.21333252 C23.4266759,6.50035095 24.9504977,7.78827865 26.4741295,9.07526573 C26.481414,9.07012367 26.4893953,9.06516974 26.4973132,9.06018446 C27.6613125,7.7068837 28.8264203,6.35311263 29.990388,5 C30.5664016,5.48658251 31.7840529,6.51282984 31.7840529,6.51282984 L30.8161015,7.36976564 C30.8161015,7.36976564 30.3426092,6.96956336 30.1292051,6.79040668 C28.9594296,8.14868638 27.7898349,9.50711875 26.6204212,10.8657038 C25.0969161,9.57821502 23.5729676,8.29075763 22.0496209,7.00326889 C22.0444268,7.00583992 22.0392326,7.00859907 22.0340701,7.01113874 C21.4699016,7.66628029 20.9054164,8.32126506 20.3411213,8.97640661 C20.3440351,8.98151731 20.3463155,8.98665936 20.3490392,8.99164465 C21.518391,9.97938928 22.6883763,10.9671653 23.8580132,11.9550667 C24.1192733,12.1757987 24.3811351,12.3966876 24.6428702,12.6175764 C24.6973456,12.6605941 24.9222782,12.8074875 24.8963391,12.8616045 C23.6165796,14.346686 22.3368201,15.8325514 21.0568706,17.3178211 C20.9518155,17.2593773 20.8465704,17.2010902 20.7413252,17.1426778 C20.4874366,17.0130796 20.2334927,16.8835876 19.9794935,16.7542019 C19.3577775,16.4820806 18.6991006,16.279189 17.971316,16.0992171 C17.568515,15.9995114 17.1394581,15.9894154 16.7015965,15.9163606 C16.5040948,15.9086301 16.3065899,15.9009798 16.1090818,15.8934095 L15.647403,15.8934095 C15.5217296,15.8959806 15.3960562,15.898238 15.2702244,15.9007777 C14.9376713,15.9548947 14.5925762,15.9539227 14.2852654,16.0150944 C13.846612,16.102572 13.4427025,16.1591032 13.0463941,16.2817287 C11.5546558,16.7426323 10.5450879,17.3690222 9.46834415,18.2241708 C9.15146853,18.4758806 8.85198068,18.79983 8.59882856,19.1152825 C8.39955006,19.3641077 8.18614596,19.6061918 7.99868101,19.8696594 C7.29198977,20.8627028 6.81184639,22.0061514 6.48280882,23.3813058 C6.17229921,24.6796744 6.25920643,26.5187425 6.6136764,27.6926984 C6.98990484,28.9392389 7.5001997,29.9509066 8.17559928,30.8844088 C8.38577286,31.1752798 8.65282886,31.4180223 8.87579782,31.6920562 C9.08742829,31.9522942 9.36537937,32.2081428 9.62983829,32.4158943 C10.6473875,33.2135711 11.7408222,33.8704684 13.1386539,34.3051914 C13.6656714,34.4687652 14.2272111,34.5405345 14.8238115,34.6480786 C15.10645,34.6984958 15.3905453,34.6530639 15.6932954,34.7012236 C15.90993,34.7352427 16.2308596,34.7278745 16.4397346,34.6935106 C16.6808515,34.676015 16.922,34.658206 17.1629585,34.640052 C17.7117029,34.5405345 18.2371051,34.4617105 18.7174069,34.3127164 C21.7112085,33.3848579 23.7451668,31.4695369 24.8502884,28.6753324 C25.0706603,28.1179526 25.2023196,27.5090581 25.3348025,26.8626016 C25.5224258,25.9480059 25.5201454,24.6343993 25.3270112,23.731718 C25.240104,23.322862 25.190316,22.9452659 25.0735741,22.5738153 C24.6315318,21.171226 23.9764021,19.9436548 23.072681,18.9934409 C23.0777168,18.9884869 23.082911,18.9833449 23.0879151,18.9782028 C24.3626705,17.4955355 25.6375525,16.0122098 26.9125929,14.5295111 C26.9252616,14.5423663 26.9379303,14.5549079 26.9507256,14.5675749 C28.4640007,15.8422085 29.9777509,17.1171556 31.4908677,18.3917892 L31.4984689,18.3917892 C32.0626374,17.7339199 32.6272492,17.0763641 33.1912594,16.4184947 C32.0677349,15.4664259 30.9442965,14.5142576 29.8209442,13.5619898 C29.5235467,13.3107503 29.2259908,13.0593854 28.9284349,12.807801 C28.849604,12.7461591 28.6402539,12.6244743 28.6282503,12.5336104 C29.7951634,11.1827553 30.96271,9.831712 32.129433,8.48098227 C32.1192347,8.46844068 32.1086881,8.45546012 32.0986481,8.44294988 L30.8179068,7.36832336 L31.7837045,6.51527545 Z M12.7293602,18.5067016 C12.7293602,18.5067016 13.0741069,18.3615953 13.1545531,18.3304608 C13.6359633,18.1444063 14.1659264,18.0551415 14.7320268,17.9493531 C14.9911649,17.9291298 15.2501129,17.9087184 15.509251,17.8885264 C19.150391,17.8324655 21.6056467,20.0285614 22.6500852,22.550676 C23.3507905,24.2423804 23.3335927,26.4602986 22.6193003,28.1267944 C21.7313201,30.1991047 20.1129582,31.6819288 17.8409552,32.3847284 C17.4156039,32.5163838 16.9625398,32.5672713 16.4789759,32.6512373 C16.2686756,32.664406 16.058312,32.6769162 15.8478534,32.6894265 C15.5942262,32.7315035 15.0831079,32.6754739 14.8630527,32.6362815 C14.6004941,32.5892505 14.359884,32.5820391 14.1166451,32.5218394 C13.5730633,32.3879579 13.078636,32.2203708 12.6161654,32.0188901 C10.5946858,31.1401319 9.20207995,29.5101009 8.52246803,27.2963527 C8.27175464,26.4793932 8.11026051,25.2065468 8.31473317,24.1959765 C8.41544927,23.6981692 8.49960104,23.22463 8.66872807,22.7943906 C9.45811419,20.7841924 10.7865214,19.3708488 12.7261296,18.5083006 C12.7497884,18.5730153 13.0470276,19.53251 13.0971323,19.7386311 C11.5532306,20.4668274 10.4988471,21.6271444 9.86154864,23.2664875 C9.72764058,23.6111619 9.6595147,23.9960948 9.58461106,24.3937574 C9.41969638,25.2681887 9.5627259,26.3182337 9.77708015,27.0142922 C10.3410903,28.8461175 11.535051,30.1680957 13.2166297,30.891777 C13.6325745,31.0704634 14.0846884,31.212058 14.5862418,31.3180031 C14.8067721,31.3435252 15.0274923,31.3688906 15.2480226,31.3945695 C15.4455275,31.4022826 15.6430323,31.4096822 15.8405372,31.4170503 C16.007246,31.4071581 16.173945,31.3971039 16.3406338,31.3868878 C16.7239884,31.3236155 17.0857745,31.2831688 17.4256438,31.1812057 C19.2728023,30.6270867 20.6540696,29.4225919 21.3807141,27.7611128 C21.5584558,27.3549533 21.6920471,26.9145866 21.7963421,26.4352468 C22.0676105,25.1861354 21.7929216,23.7925761 21.4040561,22.8932497 C20.4940324,20.7872338 18.5504019,19.1791819 15.5253085,19.1605576 C15.307217,19.178398 15.0892522,19.1963639 14.8711607,19.2140162 C14.4310504,19.2936553 14.0099431,19.3668355 13.6320994,19.5110011 C13.4814687,19.5686297 13.0958337,19.7331755 13.0958337,19.7331755 L12.7293602,18.5067016 Z" id="形状"></path>
            </g>
        </g>
    </g>
</svg>