<?xml version="1.0" encoding="UTF-8"?>
<svg width="40px" height="40px" viewBox="0 0 40 40" version="1.1" xmlns="http://www.w3.org/2000/svg" xmlns:xlink="http://www.w3.org/1999/xlink">
    <!-- Generator: Sketch 52.1 (67048) - http://www.bohemiancoding.com/sketch -->
    <title>实验室检查</title>
    <desc>Created with Sketch.</desc>
    <g id="Page-1" stroke="none" stroke-width="1" fill="none" fill-rule="evenodd">
        <g id="我的报告-copy-2" transform="translate(-40.000000, -945.000000)" fill="#008FB0" fill-rule="nonzero">
            <g id="实验管理" transform="translate(40.000000, 945.000000)">
                <path d="M26.4278162,7.14261801 L13.5525271,7.14261801 C12.95952,7.14261801 12.4804239,6.6638768 12.4804239,6.07130901 C12.4804239,5.47874121 12.95952,5 13.5525271,5 L26.4278162,5 C27.0208233,5 27.4999194,5.47874121 27.4999194,6.07130901 C27.4999194,6.6638768 27.0208233,7.14261801 26.4278162,7.14261801 Z M29.8149922,25.2812186 L10.1687014,25.2812186 C9.57569438,25.2812186 9.09659827,24.8024774 9.09659827,24.2099096 C9.09659827,23.6173418 9.57569438,23.1386006 10.1687014,23.1386006 L29.8149922,23.1386006 C30.4079992,23.1386006 30.8870953,23.6173418 30.8870953,24.2099096 C30.8870953,24.8024774 30.4046489,25.2812186 29.8149922,25.2812186 Z M30.7262799,35 L9.27416536,35 C7.70621446,35 6.21197066,34.1362571 5.46819908,32.8004687 C4.80148492,31.6019417 4.84838943,30.2125879 5.59886166,28.9872782 L14.6313309,13.2490793 L14.6313309,6.47304988 C14.6313309,5.88048209 15.110427,5.40174088 15.7034341,5.40174088 C16.2964412,5.40174088 16.7755373,5.88048209 16.7755373,6.47304988 L16.7755373,13.530298 C16.7755373,13.717777 16.7252824,13.9019083 16.6348237,14.0626046 L7.45158996,30.0652829 L7.43148803,30.0954135 C7.07635385,30.6678942 7.04620095,31.2269836 7.34102932,31.7559424 C7.70286414,32.4020757 8.49689056,32.8540341 9.27416536,32.857382 L30.7262799,32.857382 C31.496854,32.857382 32.2942308,32.3987278 32.6627662,31.7458989 C32.9341423,31.2638098 32.9274417,30.7783729 32.639314,30.3096753 C32.6326133,30.3029796 32.629263,30.2929361 32.6259127,30.2862404 L23.3555705,14.096083 C23.2617615,13.9353867 23.214857,13.7512554 23.214857,13.5637764 L23.214857,6.47304988 C23.214857,5.88048209 23.6939531,5.40174088 24.2869602,5.40174088 C24.8799672,5.40174088 25.3590633,5.88048209 25.3590633,6.47304988 L25.3590633,13.2792099 L34.4752907,29.2082357 C35.1554061,30.336458 35.1755081,31.6421158 34.5288958,32.793773 C33.7750733,34.1329093 32.2841798,34.9966522 30.7262799,35 Z" id="形状"></path>
            </g>
        </g>
    </g>
</svg>