<?xml version="1.0" encoding="UTF-8"?>
<svg width="40px" height="40px" viewBox="0 0 40 40" version="1.1" xmlns="http://www.w3.org/2000/svg" xmlns:xlink="http://www.w3.org/1999/xlink">
    <!-- Generator: Sketch 52.1 (67048) - http://www.bohemiancoding.com/sketch -->
    <title>尿液分析</title>
    <desc>Created with Sketch.</desc>
    <g id="Page-1" stroke="none" stroke-width="1" fill="none" fill-rule="evenodd">
        <g id="我的报告-copy-2" transform="translate(-40.000000, -833.000000)" fill="#008FB0" fill-rule="nonzero">
            <g id="尿液分析" transform="translate(40.000000, 833.000000)">
                <path d="M31.0001035,11.9052946 C32.3407043,10.5647216 32.3295613,8.34873378 30.9889606,7.00747222 C30.339788,6.35776591 29.4763635,5.99971845 28.5577561,6.00000017 C27.638867,6.00000017 26.7430152,6.3526952 26.095032,7.000367 C26.0522129,7.04302969 23.6693991,9.42581838 22.7664107,10.3288717 L22.5914408,10.3726612 C22.1335144,9.91548479 21.3892822,9.91517179 20.9313557,10.3729429 L19.5591414,11.7453799 C19.337346,11.9670193 19.2150236,12.2621526 19.215274,12.5763166 C19.215274,12.8898233 19.3376277,13.1847062 19.5591414,13.4060326 L19.9635753,13.832378 L10.5037164,23.2918543 C9.12499157,24.6711461 8.72897753,25.5086872 8.57676315,26.2701679 C8.47513041,26.7782391 8.43469014,27.1120599 7.17512634,28.3721903 C7.07640453,28.4708811 7,28.7581892 7,28.8977898 C7,29.0378287 7.07637324,29.3242604 7.17512634,29.4232641 L8.57676315,30.824748 C8.67955404,30.927633 8.96742482,31 9.10220479,31 C9.23717258,31 9.52491816,30.927633 9.62783424,30.824748 C10.887398,29.5652123 11.3974085,29.3495199 11.9053532,29.2480434 C12.6665503,29.0957035 13.3293072,28.8753786 14.7081886,27.496212 L24.167891,18.0367357 L24.5916686,18.4392613 C25.0346647,18.8829785 25.809321,18.8824151 26.2513155,18.439543 L27.6240933,17.0665114 C28.0804234,16.6097419 28.081112,15.8651008 27.6250949,15.4071732 C27.6245315,15.4066411 27.6245315,15.4066411 27.6240933,15.4064846 L27.6717639,15.2339557 L31.0001035,11.9052946 Z M18.2012963,22 L14,22 L20.8994455,15 L23,17.131397 L18.2012963,22 Z M22,30.0189463 C22,31.66512 23.3435429,33 24.9999671,33 C26.6573457,33 28,31.66512 28,30.0189463 C28,28.3724827 24.9999671,24 24.9999671,24 C24.9999671,24 22,28.3724827 22,30.0189463 Z" id="形状"></path>
            </g>
        </g>
    </g>
</svg>