<?xml version="1.0" encoding="UTF-8"?>
<svg width="32px" height="32px" viewBox="0 0 32 32" version="1.1" xmlns="http://www.w3.org/2000/svg" xmlns:xlink="http://www.w3.org/1999/xlink">
    <!-- Generator: Sketch 52.1 (67048) - http://www.bohemiancoding.com/sketch -->
    <title>已购未预约</title>
    <desc>Created with Sketch.</desc>
    <g id="Page-1" stroke="none" stroke-width="1" fill="none" fill-rule="evenodd">
        <g id="我的预约" transform="translate(-43.000000, -767.000000)" fill="#008FB0">
            <g id="edit-square" transform="translate(43.000000, 767.000000)">
                <path d="M30.546875,16 C30.7101562,16 30.84375,16.1335938 30.84375,16.296875 L30.84375,29.65625 C30.84375,30.3130859 30.3130859,30.84375 29.65625,30.84375 L2.34375,30.84375 C1.68691406,30.84375 1.15625,30.3130859 1.15625,29.65625 L1.15625,2.34375 C1.15625,1.68691406 1.68691406,1.15625 2.34375,1.15625 L15.703125,1.15625 C15.8664063,1.15625 16,1.28984375 16,1.453125 L16,3.53125 C16,3.69453125 15.8664063,3.828125 15.703125,3.828125 L3.828125,3.828125 L3.828125,28.171875 L28.171875,28.171875 L28.171875,16.296875 C28.171875,16.1335938 28.3054687,16 28.46875,16 L30.546875,16 Z M10.2072266,16.8498047 C10.2072266,16.771875 10.240625,16.6976563 10.2925781,16.6419922 L25.7226562,1.24160156 C25.7820312,1.1859375 25.85625,1.15625 25.9341797,1.15625 C26.0121094,1.15625 26.0863281,1.18222656 26.1457031,1.24160156 L30.7583984,5.85058594 C30.8734375,5.965625 30.8734375,6.15488281 30.7583984,6.26992188 L15.3246094,21.6703125 C15.2726562,21.7222656 15.1984375,21.7519531 15.1242187,21.7556641 L10.7453125,21.8632812 L10.7304687,21.8632812 C10.4001953,21.8632812 10.1330078,21.5923828 10.1367187,21.2621094 L10.2072266,16.8498047 Z M12.5636719,17.7255859 L12.5376953,19.4474609 L14.2335937,19.4066406 L27.6115234,6.05839844 L25.9341797,4.38476562 L12.5636719,17.7255859 Z" id="合并形状"></path>
            </g>
        </g>
    </g>
</svg>