<?xml version="1.0" encoding="UTF-8"?>
<svg width="36px" height="36px" viewBox="0 0 36 36" version="1.1" xmlns="http://www.w3.org/2000/svg" xmlns:xlink="http://www.w3.org/1999/xlink">
    <!-- Generator: Sketch 52.1 (67048) - http://www.bohemiancoding.com/sketch -->
    <title>已预约</title>
    <desc>Created with Sketch.</desc>
    <g id="Page-1" stroke="none" stroke-width="1" fill="none" fill-rule="evenodd">
        <g id="我的预约" transform="translate(-41.000000, -186.000000)" fill="#008FB0">
            <g id="check-circle" transform="translate(41.000000, 186.000000)">
                <path d="M24.9394531,12.0996094 C25.1806641,12.0996094 25.3216797,12.3742188 25.1769531,12.5708984 L17.3617187,23.4068359 C16.8904297,24.0636719 15.9144531,24.0636719 15.4431641,23.4068359 L10.8193359,16.9943359 C10.6783203,16.7976563 10.8193359,16.5230469 11.0605469,16.5230469 L12.8009766,16.5230469 C13.1832031,16.5230469 13.5394531,16.7085938 13.7621094,17.0166016 L16.4042969,20.6830078 L22.2378906,12.5931641 C22.4605469,12.2814453 22.8205078,12.0996094 23.1990234,12.0996094 L24.9394531,12.0996094 Z M18,1.375 C27.1808594,1.375 34.625,8.81914062 34.625,18 C34.625,27.1808594 27.1808594,34.625 18,34.625 C8.81914062,34.625 1.375,27.1808594 1.375,18 C1.375,8.81914062 8.81914062,1.375 18,1.375 Z M18,31.8046875 C25.6222656,31.8046875 31.8046875,25.6222656 31.8046875,18 C31.8046875,10.3777344 25.6222656,4.1953125 18,4.1953125 C10.3777344,4.1953125 4.1953125,10.3777344 4.1953125,18 C4.1953125,25.6222656 10.3777344,31.8046875 18,31.8046875 Z" id="合并形状"></path>
            </g>
        </g>
    </g>
</svg>