<?xml version="1.0" encoding="UTF-8"?>
<svg width="40px" height="40px" viewBox="0 0 40 40" version="1.1" xmlns="http://www.w3.org/2000/svg" xmlns:xlink="http://www.w3.org/1999/xlink">
    <!-- Generator: Sketch 52.1 (67048) - http://www.bohemiancoding.com/sketch -->
    <title>影像诊断内容</title>
    <desc>Created with Sketch.</desc>
    <g id="Page-1" stroke="none" stroke-width="1" fill="none" fill-rule="evenodd">
        <g id="我的报告-copy" transform="translate(-39.000000, -717.000000)" fill="#008FB0" fill-rule="nonzero">
            <g id="个人诊断" transform="translate(39.000000, 717.000000)">
                <path d="M35.7589437,28.6870533 L35.7613172,30.3152846 C37.6672498,30.8873017 38.9655625,32.5867386 38.9726831,34.5116593 C38.9726831,36.9421387 36.912472,38.9097827 34.3728109,38.9097827 C31.8331498,38.9097827 29.7776857,36.9397652 29.7776857,34.5116593 C29.7776857,32.5677504 31.0949866,30.9229045 32.9178461,30.3413933 L32.9178461,28.6870533 C32.9178461,26.8689407 31.3750613,25.3878673 29.4715023,25.3878673 L29.0656312,25.3878673 C27.1644456,25.3878673 25.6192873,26.8689407 25.6192873,28.6870533 L25.6192873,32.9593804 C25.6026727,36.2941691 22.7876838,38.9881087 19.3294723,38.9762411 L18.9259748,38.9762411 C15.4606428,38.9762411 12.6385334,36.275181 12.6385334,32.9593804 L12.6385334,24.9582611 L12.5198576,24.9582611 C11.861424,24.9569521 11.3283517,24.4228179 11.3283531,23.764383 C4.03216773,23.3015476 2.5938176,18.0988026 1.51386825,11.9419045 L1.26702266,10.5320365 C0.76858449,7.79300012 1.1008766,4.75490083 2.32798392,3.30943015 C3.1634612,2.31730087 4.39294203,1.70256048 5.71736342,1.60999337 L7.91049134,1.60999337 C8.29253325,1.22328176 8.81475186,1.00754555 9.35833553,1.01186758 C10.4548995,1.00949406 11.3497147,1.8639595 11.3544617,2.9201737 C11.3465825,3.6926622 10.8759768,4.38500458 10.1605836,4.67657485 C9.43651983,4.98164604 8.60171519,4.8451255 8.01255251,4.32529461 L5.80993053,4.32529461 C5.29902628,4.39621873 4.83368749,4.65728311 4.50687075,5.05633724 C3.8541541,5.85858533 3.72598429,8.18937712 4.06539695,10.0644541 L4.31698953,11.4885631 C5.53222924,18.4429622 6.8020598,20.602861 11.3283531,21.0395877 C11.3283531,20.4177268 11.8339118,19.9121681 12.4557727,19.9121681 L15.5532099,19.9121681 C16.1608297,19.9121681 16.6521473,20.4034857 16.6521473,21.0111056 C20.9885594,20.4082327 22.4055479,18.3124189 23.599426,11.4909366 L23.8510186,10.0668276 C24.1951783,8.16326849 23.8866213,5.81823561 23.207796,5.02310806 C22.883363,4.64271541 22.4307414,4.39444909 21.9355919,4.32529461 L19.7282229,4.32529461 C19.1400434,4.84497858 18.3064131,4.98238005 17.5825652,4.67894837 C16.8671721,4.38737809 16.3965664,3.6950357 16.3886872,2.92254721 C16.3886872,2.41461498 16.6023036,1.92567087 16.9749454,1.5696436 C17.3546774,1.20746995 17.8600675,1.00667527 18.3848133,1.00949406 C18.9307218,1.00949406 19.4528951,1.22785746 19.8279105,1.60999337 L22.0186649,1.60999337 C23.3330224,1.69521538 24.5571189,2.30811965 25.4127915,3.30943015 C26.6398988,4.75727434 27.1454575,7.79300012 26.6470193,10.5320365 L26.4001738,11.939531 C25.3344655,18.0299706 23.7418369,23.118787 16.6545209,23.7477684 L16.6545209,23.7833711 C16.6545209,24.4322449 16.1285047,24.9582611 15.4796309,24.9582611 L15.4796309,32.9570069 C15.4796309,34.777493 17.0247892,36.2561929 18.9259748,36.2561929 L19.3318459,36.2561929 C21.2330314,36.2561929 22.7781897,34.777493 22.7781898,32.9570069 L22.7781898,28.6846798 C22.7948044,25.3522646 25.6097932,22.6606985 29.0680047,22.6701926 L29.4715023,22.6701926 C32.9392078,22.6701926 35.7589437,25.3712527 35.7589437,28.6870533 Z M34.3751844,36.8875479 C35.6860406,36.8875479 36.7486995,35.824889 36.7486995,34.5140328 C36.7486995,33.2031766 35.6860406,32.1405177 34.3751844,32.1405177 C33.0643282,32.1405177 32.0016693,33.2031766 32.0016693,34.5140328 C32.0016693,35.824889 33.0643282,36.8875479 34.3751844,36.8875479 Z" id="形状"></path>
            </g>
        </g>
    </g>
</svg>