<?xml version="1.0" encoding="UTF-8"?>
<svg width="40px" height="40px" viewBox="0 0 40 40" version="1.1" xmlns="http://www.w3.org/2000/svg" xmlns:xlink="http://www.w3.org/1999/xlink">
    <!-- Generator: Sketch 52.1 (67048) - http://www.bohemiancoding.com/sketch -->
    <title>影像所见内容</title>
    <desc>Created with Sketch.</desc>
    <g id="Page-1" stroke="none" stroke-width="1" fill="none" fill-rule="evenodd">
        <g id="我的报告-copy" transform="translate(-39.000000, -426.000000)" fill="#008FB0" fill-rule="nonzero">
            <g id="检查验收管理" transform="translate(39.000000, 426.000000)">
                <path d="M9.30533789,15.7228105 L23.972002,15.7228105 L23.972002,16.944748 L9.30533789,16.944748 L9.30533789,15.7228105 Z M19.9065957,35.2776328 L5.63896875,35.2776328 L5.63896875,13.278416 L14.1942754,13.278416 L14.1942754,4.72310937 L27.6384082,4.72310937 L27.6384082,23.0562168 C28.4877305,23.0562168 29.3078848,23.1804961 30.0823574,23.4109453 L30.0823574,2.27860352 L11.7498066,2.27860352 L3.1945,10.8339102 L3.1945,37.7185391 L21.6505508,37.7212852 C20.9346738,37.0197324 20.341666,36.1935664 19.9065957,35.2775957 L19.9065957,35.2776328 Z M9.30533789,18.1673164 L23.972002,18.1673164 L23.972002,19.3892539 L9.30533789,19.3892539 L9.30533789,18.1673164 Z M9.30533789,20.611748 L23.972002,20.611748 L23.972002,21.8336855 L9.30533789,21.8336855 L9.30533789,20.611748 Z M9.30533789,23.0561797 L17.8606816,23.0561797 L17.8606816,24.2781172 L9.30533789,24.2781172 L9.30533789,23.0561797 Z M27.6384082,28.8616445 C26.7949121,28.8616445 26.1106152,29.5462754 26.1106152,30.3898086 C26.1106152,31.2328594 26.7949492,31.9176758 27.6384082,31.9176758 C28.4814219,31.9176758 29.1662383,31.2328594 29.1662383,30.3898086 C29.1662383,29.5462754 28.4814219,28.8616445 27.6384082,28.8616445 Z M27.6384082,24.2781543 C22.5759844,24.2781543 18.4714277,30.3897344 18.4714277,30.3897344 C18.4714277,30.3897344 22.5759844,36.5010547 27.6384082,36.5010547 C32.7008691,36.5010547 36.8053887,30.3897344 36.8053887,30.3897344 C36.8053887,30.3897344 32.700832,24.2781543 27.6384082,24.2781543 Z M27.6384082,34.2093652 C25.5291855,34.2093652 23.8188145,32.4985859 23.8188145,30.3897715 C23.8188145,28.2797695 25.5291855,26.5699551 27.6384082,26.5699551 C29.747668,26.5699551 31.4580391,28.2798066 31.4580391,30.3897715 C31.4580391,32.4985488 29.747668,34.2093652 27.6384082,34.2093652 Z" id="形状"></path>
            </g>
        </g>
    </g>
</svg>