<?xml version="1.0" encoding="UTF-8"?>
<svg width="40px" height="40px" viewBox="0 0 40 40" version="1.1" xmlns="http://www.w3.org/2000/svg" xmlns:xlink="http://www.w3.org/1999/xlink">
    <!-- Generator: Sketch 52.1 (67048) - http://www.bohemiancoding.com/sketch -->
    <title>心电图</title>
    <desc>Created with Sketch.</desc>
    <g id="Page-1" stroke="none" stroke-width="1" fill="none" fill-rule="evenodd">
        <g id="我的报告-copy-2" transform="translate(-40.000000, -1168.000000)" fill="#008FB0" fill-rule="nonzero">
            <g id="心电图" transform="translate(40.000000, 1168.000000)">
                <path d="M30.0309394,6.30641754 C25.9813501,5.30202801 22.1201138,6.85426637 19.9540544,9.68481865 C17.787995,6.85426637 13.9267587,5.30202801 9.87716938,6.30641754 C5.73340359,7.4021152 2.90810873,11.237057 3.00228523,15.4372314 C3.19063822,24.7506615 11.0072873,31.1422312 19.1064659,34.7945567 C19.6715249,35.0684811 20.3307603,35.0684811 20.8958193,34.7945567 C28.9949979,31.1422312 36.811647,24.7506615 37,15.4372314 C37,11.237057 34.2688816,7.31080706 30.0309394,6.30641754 Z M19.9077286,32.9410875 C15.6893918,31.0576222 9.87746124,27.6494469 6.97149593,22.447495 L15.4081694,22.447495 C15.7831327,22.447495 16.0643551,22.2681174 16.1580959,21.9093621 L17.0955041,19.2186973 L19.0640612,26.2144257 C19.157802,26.573181 19.5327653,26.8422474 19.9077286,26.8422474 C20.2826918,26.8422474 20.6576551,26.573181 20.7513959,26.3041145 L23.0011755,20.7434074 L23.8448429,21.9990509 C24.0323245,22.2681174 24.2198061,22.3578062 24.5010286,22.3578062 L26.4695857,22.3578062 C27.0320306,22.3578062 27.4069939,21.9990509 27.4069939,21.460918 C27.4069939,20.922785 27.0320306,20.5640297 26.4695857,20.5640297 L25.1572143,20.5640297 L23.6573612,18.2321203 C23.4698796,17.9630538 23.0949163,17.7836761 22.8136939,17.7836761 C22.4387306,17.7836761 22.1575082,18.0527426 22.0637674,18.3218091 L20.188951,22.985628 L18.1266531,15.810522 C18.0329123,15.4517667 17.657949,15.1827002 17.2829857,15.1827002 C16.8142816,15.1827002 16.5330592,15.4517667 16.3455776,15.810522 L14.6582429,20.5640297 L6.03408777,20.5640297 C5.47164287,19.0393197 5.00293879,17.4249208 5.00293879,15.6311443 C4.90919798,12.3126578 7.06523675,9.08386014 10.4399061,8.27666072 C13.6270939,7.4694613 16.7205408,8.5457272 18.5016163,10.8776366 L19.3452837,11.9539025 C19.7202469,12.4023467 20.3764327,12.4023467 20.6576551,11.9539025 L21.5013225,10.8776366 C23.3761388,8.45603837 26.4695857,7.4694613 29.6567735,8.27666072 C32.937702,9.17354897 35,12.1332802 35,15.3620779 C34.9062592,24.6897156 26.0008816,30.1607339 20.0952102,32.8513987 C20.0952102,33.0307763 20.0014694,33.0307763 19.9077286,32.9410875 Z" id="形状"></path>
            </g>
        </g>
    </g>
</svg>