<?xml version="1.0" encoding="UTF-8"?>
<svg width="52px" height="52px" viewBox="0 0 52 52" version="1.1" xmlns="http://www.w3.org/2000/svg" xmlns:xlink="http://www.w3.org/1999/xlink">
    <!-- Generator: Sketch 52.1 (67048) - http://www.bohemiancoding.com/sketch -->
    <title>推荐</title>
    <desc>Created with Sketch.</desc>
    <g id="Page-1" stroke="none" stroke-width="1" fill="none" fill-rule="evenodd">
        <g id="我的医生详情" transform="translate(-85.000000, -1606.000000)" fill="#008FB0" fill-rule="nonzero">
            <g id="分享" transform="translate(85.000000, 1606.000000)">
                <path d="M42.887141,51 L9.06398488,51 C4.61250858,50.9948338 1.00516115,47.3839636 1,42.9281401 L1,9.07195361 C1.00516115,4.61613017 4.61250858,1.00525994 9.06398488,1.00009375 L25.9755629,1.00009375 C26.8376643,1.00009375 27.5365356,1.69964752 27.5365356,2.56259082 C27.5365356,3.42553412 26.8376643,4.12508789 25.9755629,4.12508789 L9.06398488,4.12508789 C6.33852659,4.12508789 4.12194537,6.34383374 4.12194537,9.07195361 L4.12194537,42.9250151 C4.12194537,45.65626 6.33852659,47.8750059 9.06398488,47.8750059 L42.884019,47.8750059 C45.6125993,47.8750059 47.8291805,45.65626 47.8291805,42.9281401 L47.8291805,29.3469156 C47.8291805,28.4839723 48.5280518,27.7844185 49.3901532,27.7844185 C50.2522546,27.7844185 50.9511259,28.4839723 50.9511259,29.3469156 L50.9511259,42.9281401 C50.9459647,47.3839636 47.3386173,50.9948338 42.887141,51 Z M18.8887469,37.2562758 C18.0920791,37.2574323 17.4234475,36.6556159 17.340262,35.8625284 C17.2965548,35.4500292 16.3412395,25.6531725 23.3781044,17.8563122 C28.3576073,12.3375725 35.9782759,9.30007822 46.0590375,8.8063291 L41.5852898,3.57821392 C41.2227966,3.15396182 41.113954,2.56836005 41.2997621,2.04199913 C41.4855701,1.5156382 41.9378001,1.12848486 42.4861013,1.02637603 C43.0344026,0.924267197 43.5954751,1.12271563 43.9579682,1.54696772 L50.5764924,9.27820322 C50.9725572,9.74170644 51.0629776,10.3935285 50.8080582,10.9475124 C50.5531388,11.5014963 49.9994836,11.8563635 49.3901532,11.8563234 L49.0748367,11.8563234 C38.425881,11.8563234 30.5679445,14.5688183 25.7195634,19.9188083 C19.6130383,26.6562957 20.4341099,35.4469042 20.4434758,35.534404 C20.5308426,36.3914874 19.9099977,37.1581767 19.05421,37.2500258 C18.998015,37.2562758 18.944942,37.2562758 18.8887469,37.2562758 Z M42.771629,20.6906818 C42.1798139,20.6918675 41.638224,20.3579428 41.3730267,19.8283543 C41.1078295,19.2987658 41.164638,18.664601 41.5197289,18.1906865 L48.1382531,9.35632808 C48.6555139,8.6651105 49.6346326,8.5245002 50.3251758,9.04226618 C51.015719,9.56003216 51.1561921,10.540107 50.6389313,11.2313246 L44.0204071,20.065683 C43.7256106,20.4591289 43.2629565,20.6906818 42.771629,20.6906818 Z" id="形状"></path>
            </g>
        </g>
    </g>
</svg>