<?xml version="1.0" encoding="UTF-8"?>
<svg width="52px" height="52px" viewBox="0 0 52 52" version="1.1" xmlns="http://www.w3.org/2000/svg" xmlns:xlink="http://www.w3.org/1999/xlink">
    <!-- Generator: Sketch 52.1 (67048) - http://www.bohemiancoding.com/sketch -->
    <title>日间手术中心</title>
    <desc>Created with Sketch.</desc>
    <g id="Page-1" stroke="none" stroke-width="1" fill="none" fill-rule="evenodd">
        <g id="专科诊疗" transform="translate(-40.000000, -1389.000000)" fill="#008FB0" fill-rule="nonzero">
            <g id="日间手术中心" transform="translate(40.000000, 1389.000000)">
                <path d="M28.163493,38.686098 L29.379441,21.4768886 L29.4320228,18.1005171 L30.3447024,6.00662125 C30.3653876,6.0042565 30.3854413,6.00220706 30.4031265,6 L31.0405811,18.1957372 L31.0702669,21.5163009 L32.8838819,39.8276043 C33.2472169,38.6948892 34.3091107,37.875 35.5625,37.875 C37.1158009,37.875 38.375,39.1341991 38.375,40.6875 C38.375,42.2408009 37.1158009,43.5 35.5625,43.5 C34.114827,43.5 32.9226166,42.4062345 32.7671652,41 L32.3178588,41 L30.2466446,21.6452579 L28.7465793,39.5191155 C28.9093083,39.8749585 29,40.2706382 29,40.6875 C29,42.2408009 27.7408009,43.5 26.1875,43.5 C24.6341991,43.5 23.375,42.2408009 23.375,40.6875 C23.375,39.1341991 24.6341991,37.875 26.1875,37.875 C26.9576882,37.875 27.6555695,38.1845829 28.163493,38.686098 Z M19.2173905,19.125 L18.2114749,19.125 C18.2106956,19.1515064 18.2098322,19.1808763 18.2088667,19.2137188 C18.1924761,19.7730895 18.1742114,20.4085571 18.1545414,21.1081794 C18.0983401,23.1071421 18.0421384,25.2194501 17.9896851,27.3495438 C17.9514723,28.9013399 17.9166826,30.405794 17.8860994,31.8429188 C17.8067546,35.5713946 17.7590898,38.6811557 17.7511656,40.9651043 C17.7466794,42.258166 17.7550871,43.2682133 17.7772481,43.9668581 C17.788677,44.3271646 17.8037037,44.6010536 17.8217084,44.7803554 C17.8223587,44.7868316 17.8230094,44.7931424 17.823659,44.7992827 C18.7680725,45.5641224 18.7069447,45.5632983 19.5470191,44.820847 C19.549678,44.7961505 19.552355,44.7686311 19.5549974,44.7384873 C19.5720897,44.5434974 19.5863117,44.2579805 19.5972761,43.8886757 C19.6184449,43.1756675 19.6272647,42.1617848 19.6245099,40.8740264 C19.6196405,38.5978166 19.5789828,35.5214553 19.5096771,31.8439801 C19.4814601,30.3467413 19.448983,28.7769798 19.4130649,27.1573313 C19.3666884,25.0660811 19.3170089,22.9986749 19.2672719,21.0439839 C19.2499031,20.3613811 19.2337867,19.7422782 19.2192424,19.1945129 C19.2185719,19.1693473 19.2179572,19.1462723 19.2173905,19.125 Z M17.2757416,17.875 C17.2569077,17.7391146 17.2363824,17.6050517 17.2141726,17.4729698 L16.951211,17.5158999 L16.8229407,16.9398029 C16.2876076,14.5354743 15.7989197,10.4087911 15.8850781,9.12075306 C15.9466302,8.20040512 16.5983962,7.18525725 17.5940249,6.16908713 C18.7217651,5.01807975 19.4811873,4.4361476 20.0127686,4.91612975 C20.1863034,5.07281994 20.1983509,5.12355156 20.2259805,5.35382963 C20.2314015,5.39901031 20.2352785,5.45180488 20.2384052,5.51630275 C20.243707,5.62567075 20.2470609,5.7761845 20.2487376,5.96904069 C20.2518366,6.32547169 20.2491914,6.83033106 20.2412647,7.47272406 C20.2273555,8.59994138 20.1975384,10.1266207 20.1552137,11.9540196 C20.1434437,12.4622003 20.1308262,12.9882666 20.1174789,13.5287805 C20.0885175,14.7016026 20.0574891,15.888308 20.0264607,17.0284658 C20.0163891,17.3985545 20.0069844,17.7391306 19.9984529,18.0441667 L20.4506942,18.4873346 L20.4508947,18.4942521 L20.4517996,18.52755 C20.4531948,18.5789369 20.4531948,18.5789369 20.4553419,18.6583495 C20.4607244,18.8581208 20.4607244,18.8581208 20.468802,19.1613345 C20.4833582,19.7095476 20.4994866,20.3291096 20.5168674,21.0121881 C20.5666371,22.9681626 20.6163487,25.0369044 20.6627576,27.1296174 C20.698705,28.7505875 20.7312105,30.3217197 20.7594551,31.8204267 C20.9481891,41.8349582 20.9553828,45.1976589 20.550591,45.6014144 L20.5198407,45.6300885 C19.0081104,46.9475278 18.5193259,46.9486734 16.9365437,45.6893515 C16.3626587,45.3131564 16.3884511,43.4668008 16.6363824,31.8163238 C16.6669968,30.3777286 16.7018184,28.8718971 16.7400639,27.3187721 C16.7925557,25.1871151 16.8487953,23.0733815 16.9050351,21.0730493 C16.9247195,20.3729184 16.9429982,19.7369586 16.959403,19.1771071 C16.9685436,18.8661736 16.9685436,18.8661736 16.9746387,18.6612032 C16.9790939,18.512199 16.9790939,18.512199 16.980035,18.4810963 L16.9983754,17.875 L17.2757416,17.875 Z M18.536719,17.875 L18.7526878,17.875 C18.7601921,17.6056019 18.7683136,17.3108297 18.7769234,16.9944608 C18.8079249,15.8552862 18.8389266,14.6696048 18.8678598,13.4979227 C18.8811919,12.9580249 18.8937942,12.4325931 18.9055489,11.9250759 C18.9477779,10.1018057 18.9775177,8.57908556 18.9913598,7.457301 C18.9955661,7.11642519 18.9982641,6.81517587 18.9993937,6.55572469 C18.8294542,6.70672413 18.6549788,6.87234 18.4868867,7.04390012 C17.685241,7.86208506 17.1681897,8.66741019 17.1322915,9.20417319 C17.0603267,10.2800207 17.4741138,13.879361 17.9477364,16.2185381 C18.1831912,16.2896634 18.2113181,16.3579739 18.3266483,16.6380724 C18.4127715,17.0385425 18.4824952,17.4507709 18.536719,17.875 Z M42.75,48.8025757 L42.75,3.19757117 C42.75,2.68024124 42.3014055,2.25 41.7354679,2.25 L11.2646923,2.25 C10.6986103,2.25 10.25,2.68022734 10.25,3.19757117 L10.25,48.8025757 C10.25,49.3197859 10.6986254,49.75 11.2646923,49.75 L41.7354679,49.75 C42.3013904,49.75 42.75,49.3197721 42.75,48.8025757 Z M44,48.8025757 C44,50.0220986 42.9803174,51 41.7354679,51 L11.2646923,51 C10.0197164,51 9,50.0221322 9,48.8025757 L9,3.19757117 C9,1.97789995 10.0196841,1 11.2646923,1 L41.7354679,1 C42.9803496,1 44,1.97793358 44,3.19757117 L44,48.8025757 Z M24.3631757,40.6875 C24.3631757,41.6950465 25.1799535,42.5118243 26.1875,42.5118243 C27.1950465,42.5118243 28.0118243,41.6950465 28.0118243,40.6875 C28.0118243,39.6799535 27.1950465,38.8631757 26.1875,38.8631757 C25.1799535,38.8631757 24.3631757,39.6799535 24.3631757,40.6875 Z M33.7381757,40.6875 C33.7381757,41.6950465 34.5549535,42.5118243 35.5625,42.5118243 C36.5700465,42.5118243 37.3868243,41.6950465 37.3868243,40.6875 C37.3868243,39.6799535 36.5700465,38.8631757 35.5625,38.8631757 C34.5549535,38.8631757 33.7381757,39.6799535 33.7381757,40.6875 Z" id="合并形状"></path>
            </g>
        </g>
    </g>
</svg>