<?xml version="1.0" encoding="UTF-8"?>
<svg width="52px" height="52px" viewBox="0 0 52 52" version="1.1" xmlns="http://www.w3.org/2000/svg" xmlns:xlink="http://www.w3.org/1999/xlink">
    <!-- Generator: Sketch 52.1 (67048) - http://www.bohemiancoding.com/sketch -->
    <title>消化内镜中心</title>
    <desc>Created with Sketch.</desc>
    <g id="Page-1" stroke="none" stroke-width="1" fill="none" fill-rule="evenodd">
        <g id="专科诊疗" transform="translate(-40.000000, -1611.000000)" fill="#008FB0" fill-rule="nonzero">
            <g id="胃" transform="translate(40.000000, 1611.000000)">
                <path d="M45.688557,16.1797831 C44.1895171,12.3330168 41.4312839,9.64638645 38.5531274,9.03578861 C33.2165456,7.93671257 30.6981587,10.1959245 29.2590804,12.0277179 C28.7194261,11.172881 28.4795797,10.2569843 28.2996949,9.40214731 C28.1797718,8.85260929 28.0598486,8.42519081 27.8799638,7.99777234 L27.7600406,7.93671257 C27.1604247,7.02081585 25.3016153,6.7765767 24.162345,7.20399518 C23.1429979,7.57035387 22.6033436,8.42519081 22.7232668,9.52426686 C23.0830363,14.0426907 24.8219225,18.0115765 26.081116,20.8813863 C26.5608087,21.9804624 26.9805399,22.9574188 27.2203862,23.751196 C28.2397333,26.8041851 27.2803478,29.2465764 25.9012312,30.3456524 C25.0018073,31.0783698 23.9824602,31.1394296 23.0830363,30.5288317 C20.8644574,29.063397 18.0462625,27.4758427 15.7677219,28.513859 C13.7889894,27.3537231 11.1506793,27.3537231 9.17194668,28.513859 C7.67290683,29.3686959 6.83344452,30.7120111 6.71352139,32.2995654 C6.41371341,32.5438046 6.17386706,32.9101632 5.93402067,33.3986415 C4.9146736,35.5967936 4.55490404,39.9930979 5.75413587,43.1071468 C6.05394384,44.2672826 7.07329091,45 8.57233076,45 C8.93210033,45 9.29186989,44.9389402 9.65163946,44.8778804 C11.0907177,44.5725815 12.4698344,43.6566848 12.229988,42.3744294 C11.9901416,41.2142935 11.93018,40.7258153 12.1700264,37.1232882 C12.229988,35.9631523 12.7096807,35.230435 13.4891814,35.0472556 C14.0887973,34.9251361 14.5684901,35.1083154 14.6884133,35.2304349 L14.6884133,35.2914947 C16.3073763,39.9320382 20.8644574,43.4735055 26.3209624,44.2062228 C32.6768912,45.0610598 38.8529354,42.1301903 42.8104005,36.2684512 C47.1276352,29.9182339 48.1469823,22.4078808 45.688557,16.1797831 Z M41.3713223,35.2914947 C37.8335883,40.542636 32.2571601,43.2292664 26.5608087,42.4965489 C21.7638813,41.8248913 17.7464545,38.832962 16.3073763,34.8030165 C16.0675299,33.82606 14.9282596,33.1544023 13.6091046,33.2765219 C12.1700264,33.3986415 10.6110249,34.4366578 10.4311401,37.0011686 C10.1912937,40.6647556 10.2512554,41.3364131 10.5510633,42.6186685 C10.2512554,42.9239675 9.17194672,43.3513859 8.27252278,43.2292663 C7.61294524,43.1071468 7.55298365,42.8018479 7.49302206,42.6797283 L7.43306048,42.4965489 C6.83344456,41.0311142 6.65355976,39.0161414 6.83344456,36.9401088 C7.01332932,35.2914947 7.43306048,33.82606 7.85279163,33.6428806 L8.51236917,33.4597013 L8.45240759,32.7269839 C8.33248441,31.2004894 9.41179307,30.4067122 10.011409,30.0403535 C10.7309481,29.612935 11.5704104,29.4297557 12.4698343,29.4297557 C13.4891814,29.4297557 14.4485669,29.7350546 15.2280676,30.2845926 L15.7077604,30.5898916 L16.1874531,30.2845926 C17.7464545,29.3076361 20.2048799,30.7120111 22.1236508,32.0553263 C23.562729,33.0322828 25.4215385,32.971223 26.9205783,31.8110872 C28.7793877,30.3456524 30.0985428,27.1705437 28.8393493,23.2627177 C28.5395413,22.4078808 28.1198101,21.4309243 27.6401174,20.2707884 C26.3809239,17.3399189 24.8219225,13.6152722 24.462153,9.40214731 L24.462153,9.34108753 C24.4021914,9.09684839 24.5221146,9.03578861 24.6420377,8.91366906 C25.0617689,8.66942992 25.8412696,8.66942992 26.2010392,8.79154951 C26.2610008,8.85260929 26.3209624,8.85260929 26.3209624,8.91366906 C26.4408855,9.15790821 26.5008471,9.46320708 26.6207703,9.82956578 C26.9205783,11.0507614 27.3403095,12.6383158 28.7194261,14.0426907 L29.3790036,14.7143483 L29.9786196,13.9205712 C30.0385811,13.7984516 30.1585043,13.676332 30.2784275,13.5542125 C31.2977746,12.2108973 33.156584,9.70744623 38.2533194,10.7454625 C40.53186,11.2339407 42.8104005,13.5542125 44.1295556,16.7903809 C46.3481345,22.5300003 45.3287874,29.4297557 41.3713223,35.2914947 Z" id="合并形状"></path>
            </g>
        </g>
    </g>
</svg>