<?xml version="1.0" encoding="UTF-8"?>
<svg width="52px" height="52px" viewBox="0 0 52 52" version="1.1" xmlns="http://www.w3.org/2000/svg" xmlns:xlink="http://www.w3.org/1999/xlink">
    <!-- Generator: Sketch 52.1 (67048) - http://www.bohemiancoding.com/sketch -->
    <title>生物样本库</title>
    <desc>Created with Sketch.</desc>
    <g id="Page-1" stroke="none" stroke-width="1" fill="none" fill-rule="evenodd">
        <g id="专科诊疗" transform="translate(-40.000000, -1056.000000)" fill="#008FB0" fill-rule="nonzero">
            <g id="化学试管" transform="translate(40.000000, 1056.000000)">
                <path d="M24.3332059,31.461369 C24.3332059,32.3739904 23.5862239,33.1151831 22.6665844,33.1151831 C21.747093,33.1151831 20.999963,32.3739414 20.999963,31.461369 C20.999963,30.5489434 21.747093,29.8075548 22.6665844,29.8075548 C23.5862733,29.8075548 24.3332059,30.5489924 24.3332059,31.461369 Z M29.3332182,36.4229093 C29.3332182,37.3355307 28.5862362,38.0769193 27.6665474,38.0769193 C26.7471053,38.0769193 25.9999753,37.3354817 25.9999753,36.4229093 C25.9999753,35.5104838 26.7471547,34.7690952 27.6665474,34.7690952 C28.5862362,34.7690952 29.3332182,35.5105327 29.3332182,36.4229093 Z M30.9998396,24.8461614 C30.9998396,26.6727752 29.5074548,28.1537407 27.6664981,28.1537407 C25.8257881,28.1537407 24.3332059,26.6727752 24.3332059,24.8461614 C24.3332059,23.0178337 25.8257881,21.5384352 27.6664981,21.5384352 C29.5074548,21.5384352 30.9998396,23.0178337 30.9998396,24.8461614 Z M36,5 L34.3333292,5 L17.6666708,5 L16,5 L16,6.65381414 L17.6666708,6.65381414 L17.6666708,39.7307824 C17.6666708,44.2980515 21.3987679,48 25.9998766,48 C30.6027125,48 34.3332799,44.2980515 34.3332799,39.7307824 L34.3332799,6.6538631 L35.9999507,6.6538631 L36,5 Z M32.6664611,39.7307824 C32.6664611,43.3792604 29.6766088,46.3461369 25.9998766,46.3461369 C22.3232925,46.3461369 19.3332429,43.3792604 19.3332429,39.7307824 L19.3332429,6.6538631 L32.6664611,6.6538631 L32.6664611,39.7307824 Z" id="形状"></path>
            </g>
        </g>
    </g>
</svg>