<?xml version="1.0" encoding="UTF-8"?>
<svg width="40px" height="47px" viewBox="0 0 40 47" version="1.1" xmlns="http://www.w3.org/2000/svg" xmlns:xlink="http://www.w3.org/1999/xlink">
    <!-- Generator: Sketch 52.1 (67048) - http://www.bohemiancoding.com/sketch -->
    <title>电话号码</title>
    <desc>Created with Sketch.</desc>
    <g id="Page-1" stroke="none" stroke-width="1" fill="none" fill-rule="evenodd">
        <g id="就诊导航" transform="translate(-40.000000, -400.000000)" fill="#008FB0" fill-rule="nonzero">
            <g id="分组-21" transform="translate(40.000000, 400.000000)">
                <path d="M2,12.8274898 C2.01852838,11.6267148 2.14822721,10.6476214 2.62996562,9.7239484 C2.77819283,9.44684651 2.96347685,9.16974458 3.18581767,8.94806309 C3.81578332,8.2830185 4.44574894,7.63644739 5.09424298,6.98987628 C5.81685062,6.26941133 6.63210029,5.65978714 7.59557717,5.29031792 C8.37377004,4.99474255 9.17049129,4.92084871 9.98574092,5.08710984 C11.0603882,5.29031789 11.931223,5.84452171 12.7094159,6.5649867 C13.8767052,7.63644739 14.7845968,8.91111617 15.5813181,10.2781522 C16.0074713,11.0170907 16.3039257,11.792976 16.4336246,12.6242817 C16.6189086,13.8250566 16.359511,14.9334642 15.6183749,15.8940842 C15.0625229,16.6145492 14.4325572,17.2611203 13.8025916,17.9076914 C13.5617224,18.1478464 13.5246656,18.3510545 13.635836,18.6651033 C13.8952336,19.4594621 14.3213868,20.1614536 14.8216536,20.8080247 C15.5257329,21.7132243 16.2853974,22.5999504 17.0635902,23.468203 C17.8232546,24.3179822 18.6199759,25.112341 19.4166972,25.9066998 C20.009606,26.479377 20.6025148,27.0520543 21.2324805,27.5877847 C22.362713,28.5484046 23.5114738,29.527498 24.8825755,30.1371222 C25.1234447,30.247963 25.4013708,30.3218568 25.6607684,30.3772772 C25.7534104,30.3957506 25.9016376,30.3218568 25.9757512,30.247963 C26.3277908,29.9154407 26.661302,29.5644449 27.0133417,29.2134492 C27.5136085,28.7331392 28.0509321,28.2713027 28.6623694,27.9757273 C29.4590906,27.5877847 30.2928687,27.4215235 31.2007603,27.5323643 C32.3124644,27.6616785 33.2944697,28.0865681 34.2023614,28.6961923 C34.9990826,29.2134492 35.758747,29.767653 36.4998831,30.3772772 C37.3521896,31.0607952 38.0562688,31.892101 38.5380073,32.8896678 C38.8900469,33.6101327 39.0568025,34.3675446 38.9826889,35.1803769 C38.8900469,36.2148907 38.482422,37.1570371 37.8153996,37.951396 C37.1669056,38.7088079 36.4813547,39.4292728 35.7772755,40.1312643 C35.3140654,40.5746274 34.8879122,41.0549374 34.276475,41.3689862 C33.7206229,41.6460881 33.1462425,41.8492962 32.5348052,41.9047165 C32.1271804,41.9416634 31.7010272,42.0155573 31.2748739,41.9970838 C30.4225675,41.9416634 29.5517326,41.8492961 28.7179546,41.7015084 C27.3653813,41.44288 26.0683932,40.9995169 24.8084619,40.4637866 C23.567059,39.9280562 22.3627129,39.355379 21.2324805,38.634914 C20.3245888,38.0622367 19.4166972,37.5080329 18.5273339,36.8984087 C17.7861978,36.3996253 17.0821186,35.8454215 16.3780393,35.2912177 C15.5627897,34.6261731 14.74754,33.942655 13.9693472,33.2221901 C13.1540975,32.4832517 12.3573763,31.7073663 11.5791834,30.931481 C10.9306894,30.2849099 10.3192522,29.5829184 9.7263433,28.8994003 C8.72580965,27.7170989 7.72527597,26.516324 6.87296953,25.2047083 C6.15036188,24.0963006 5.42775424,22.9694196 4.76073178,21.824065 C3.87136851,20.2722944 3.13023248,18.6281564 2.62996562,16.9101245 C2.370568,16.0233984 2.18528398,15.1181989 2.01852838,14.2129993 C2.01852838,13.6403221 2.01852838,13.1415386 2,12.8274898 Z M4.50133416,12.6797021 C4.51986254,13.0122244 4.50133416,13.3262732 4.57544777,13.6587955 C4.74220336,14.4901012 4.908959,15.3214069 5.1498282,16.1157657 C5.57598142,17.5751691 6.20594707,18.9606787 6.94708313,20.2907678 C7.41029316,21.1220735 7.87350321,21.9349058 8.39229842,22.7292646 C9.26313328,24.0963006 10.2080817,25.3894429 11.282729,26.6271647 C12.0423934,27.4954174 12.7835295,28.36367 13.5802508,29.1949757 C14.3399152,29.9893345 15.1366365,30.7097995 15.9333577,31.4672114 C16.4150961,31.9105744 16.915363,32.3539375 17.4341582,32.778827 C18.3976351,33.5362389 19.3611119,34.3121243 20.380174,35.0325892 C21.8624461,36.067103 23.4188318,36.990776 25.0678595,37.7481879 C26.2536772,38.3023917 27.4580233,38.7827017 28.7179546,39.0967505 C29.6814315,39.355379 30.6449083,39.5216401 31.6269136,39.5031667 C31.7751408,39.5031667 31.9048396,39.4662197 32.0530668,39.4662197 C32.6459757,39.4107994 33.2203561,39.2630117 33.6279809,38.7827017 C33.7576797,38.634914 33.9059069,38.4871263 34.0541341,38.3578121 C34.8693838,37.6188737 35.6661051,36.8799353 36.2404855,35.9377888 C36.5554683,35.4205319 36.6851671,34.8478546 36.4628263,34.2567039 C36.2960707,33.8133408 36.0366731,33.4069247 35.7031619,33.0744024 C35.2399518,32.6310393 34.7582134,32.1876763 34.276475,31.7812602 C33.5353389,31.171636 32.7386176,30.6728526 31.8677828,30.2849099 C30.9784195,29.8969672 30.1631699,29.9154407 29.4220338,30.5804853 C28.8105966,31.1162156 28.2362161,31.6888929 27.6433073,32.2430967 C27.5877221,32.2985171 27.5136085,32.3724109 27.4394949,32.4093579 C26.8651145,32.7788271 26.2722056,32.9635617 25.5866548,32.9081413 C24.9196323,32.8527209 24.2896667,32.6679863 23.6967578,32.3908844 C22.5109402,31.8182071 21.4362929,31.0423218 20.4357592,30.1740691 C19.5649244,29.4351307 18.6940895,28.6961923 17.8788399,27.9018335 C16.9709482,27.0151074 16.1001133,26.1099078 15.2292785,25.1677613 C14.6178412,24.5211902 14.0434608,23.8376722 13.4876088,23.1356807 C12.7650011,22.2489546 12.1165071,21.3252816 11.6347686,20.2907678 C11.282729,19.5333559 11.0603882,18.7389971 11.1715586,17.8892179 C11.2456722,17.2980672 11.468013,16.8177572 11.8941662,16.3928676 C12.4314899,15.8386638 12.9873419,15.28446 13.5061372,14.6933093 C13.8767052,14.2868931 14.1546312,13.7881097 14.0619892,13.2154324 C13.9693472,12.6981755 13.7840632,12.1809187 13.5617224,11.7190821 C13.172626,10.9247233 12.6538307,10.2227318 12.0794502,9.5392138 C11.5791834,8.92958961 11.0603882,8.33843886 10.3933658,7.91354928 C9.94868412,7.63644739 9.46694568,7.45171278 8.92962205,7.56255355 C8.18848599,7.71034123 7.61410556,8.17217773 7.07678193,8.67096116 C6.55798668,9.15127114 6.07624828,9.65005456 5.57598142,10.1673115 C5.33511221,10.4074664 5.07571459,10.6476214 4.92748738,10.9431968 C4.55691935,11.4604537 4.50133416,12.0700779 4.50133416,12.6797021 Z" id="形状"></path>
            </g>
        </g>
    </g>
</svg>