<?xml version="1.0" encoding="UTF-8"?>
<svg width="52px" height="52px" viewBox="0 0 52 52" version="1.1" xmlns="http://www.w3.org/2000/svg" xmlns:xlink="http://www.w3.org/1999/xlink">
    <!-- Generator: Sketch 52.1 (67048) - http://www.bohemiancoding.com/sketch -->
    <title>细胞医学中心</title>
    <desc>Created with Sketch.</desc>
    <g id="Page-1" stroke="none" stroke-width="1" fill="none" fill-rule="evenodd">
        <g id="专科诊疗" transform="translate(-40.000000, -723.000000)" fill="#008FB0" fill-rule="nonzero">
            <g id="细胞治疗中心" transform="translate(40.000000, 723.000000)">
                <path d="M20.5544858,14.2224739 L23.3371488,20.8813718 C23.4265989,20.8771404 23.5166138,20.875 23.6071429,20.875 C25.5582143,20.875 27.2704542,21.8691554 28.2371725,23.3648512 L31.5083914,21.0931714 C31.1839481,20.4703638 31,19.7566877 31,19 C31,16.5953094 32.8577203,14.625 35.1785714,14.625 C37.4994226,14.625 39.3571429,16.5953094 39.3571429,19 C39.3571429,21.4046906 37.4994226,23.375 35.1785714,23.375 C34.0318394,23.375 32.9981737,22.8939794 32.2457991,22.1172122 L28.8022246,24.5085834 L28.7847154,24.4847516 C28.9706304,25.0192817 29.0714286,25.5919465 29.0714286,26.1875 C29.0714286,26.3622113 29.0627539,26.5349527 29.0458005,26.7053394 L38.213269,30.6046967 C38.7757344,28.2525767 40.9452086,26.5 43.5357143,26.5 C46.553556,26.5 49,28.8784873 49,31.8125 C49,34.7465128 46.553556,37.125 43.5357143,37.125 C40.5510764,37.125 38.1253316,34.7985633 38.0723146,31.90914 L28.763626,27.9497118 C28.016005,30.0175756 25.9896396,31.5 23.6071429,31.5 C22.566038,31.5 21.5929371,31.216928 20.7648253,30.7256306 L18.2775785,34.5946812 C20.5155968,35.9815583 22,38.4159939 22,41.1875 C22,45.5022246 18.4022882,49 13.9642857,49 C9.52628324,49 5.92857143,45.5022246 5.92857143,41.1875 C5.92857143,36.8727754 9.52628324,33.375 13.9642857,33.375 C15.0916289,33.375 16.1647512,33.6006988 17.1384556,34.0081548 L19.7481204,29.9486763 C18.8991544,29.1253316 18.3272801,28.0320491 18.1802734,26.8125 L14.7764523,26.8125 C14.1982639,29.1433533 12.0392766,30.875 9.46428571,30.875 C6.44644405,30.875 4,28.4965128 4,25.5625 C4,22.6284873 6.44644405,20.25 9.46428571,20.25 C12.4821274,20.25 14.9285714,22.6284873 14.9285714,25.5625 L18.1802734,25.5625 C18.4365342,23.4365931 19.9838461,21.6943746 22.0394312,21.0968785 L19.3085822,14.5619711 C19.0333998,14.6034669 18.7514293,14.625 18.4642857,14.625 C15.446444,14.625 13,12.2465127 13,9.3125 C13,6.37848725 15.446444,4 18.4642857,4 C21.4821274,4 23.9285714,6.37848725 23.9285714,9.3125 C23.9285714,11.5267274 22.5352357,13.4245637 20.5544858,14.2224739 Z M32.6134197,20.4460435 L33.2881962,21.3644893 C33.797071,21.8391553 34.4593589,22.125 35.1785714,22.125 C36.7631625,22.125 38.0714286,20.7374451 38.0714286,19 C38.0714286,17.2625549 36.7631625,15.875 35.1785714,15.875 C33.5939804,15.875 32.2857143,17.2625549 32.2857143,19 C32.2857143,19.5231851 32.4043416,20.0146439 32.6134197,20.4460435 Z M18.4642857,13.375 C20.772047,13.375 22.6428571,11.5561568 22.6428571,9.3125 C22.6428571,7.06884319 20.772047,5.25 18.4642857,5.25 C16.1565244,5.25 14.2857143,7.06884319 14.2857143,9.3125 C14.2857143,11.5561568 16.1565244,13.375 18.4642857,13.375 Z M9.46428571,29.625 C11.772047,29.625 13.6428571,27.8061568 13.6428571,25.5625 C13.6428571,23.3188432 11.772047,21.5 9.46428571,21.5 C7.15652444,21.5 5.28571429,23.3188432 5.28571429,25.5625 C5.28571429,27.8061568 7.15652444,29.625 9.46428571,29.625 Z M43.5357143,35.875 C45.8434756,35.875 47.7142857,34.0561568 47.7142857,31.8125 C47.7142857,29.5688432 45.8434756,27.75 43.5357143,27.75 C41.227953,27.75 39.3571429,29.5688432 39.3571429,31.8125 C39.3571429,34.0561568 41.227953,35.875 43.5357143,35.875 Z M13.9642857,47.75 C17.6922078,47.75 20.7142857,44.8118687 20.7142857,41.1875 C20.7142857,37.5631313 17.6922078,34.625 13.9642857,34.625 C10.2363636,34.625 7.21428571,37.5631313 7.21428571,41.1875 C7.21428571,44.8118687 10.2363636,47.75 13.9642857,47.75 Z M23.6071429,30.25 C25.9149042,30.25 27.7857143,28.4311568 27.7857143,26.1875 C27.7857143,23.9438432 25.9149042,22.125 23.6071429,22.125 C21.2993816,22.125 19.4285714,23.9438432 19.4285714,26.1875 C19.4285714,28.4311568 21.2993816,30.25 23.6071429,30.25 Z" id="合并形状"></path>
            </g>
        </g>
    </g>
</svg>