<?xml version="1.0" encoding="UTF-8"?>
<svg width="52px" height="52px" viewBox="0 0 52 52" version="1.1" xmlns="http://www.w3.org/2000/svg" xmlns:xlink="http://www.w3.org/1999/xlink">
    <!-- Generator: Sketch 52.1 (67048) - http://www.bohemiancoding.com/sketch -->
    <title>英国伦敦皇家全科</title>
    <desc>Created with Sketch.</desc>
    <g id="Page-1" stroke="none" stroke-width="1" fill="none" fill-rule="evenodd">
        <g id="专科诊疗" transform="translate(-40.000000, -168.000000)" fill="#008FB0" fill-rule="nonzero" stroke="#008FB0" stroke-width="0.5">
            <g id="英国皇家全科医学科" transform="translate(40.000000, 168.000000)">
                <path d="M19.3953844,24.05 L16.1792801,11.0103306 L16.1792801,11.0047764 C16.1460088,10.8381528 16.1016469,10.6548669 16.0572851,10.4604726 C15.6580287,8.69426222 15.0535989,6.02828424 16.4565415,4.26762798 C17.2818654,3.23693456 18.6828957,2.68430175 20.6318218,2.62365732 C20.6414896,2.27904051 20.9385532,2 21.3003096,2 L25.6470589,2 C26.0148607,2 26.3157895,2.28844477 26.3157895,2.64098837 L26.3157895,3.19651163 C26.3157895,3.54905523 26.0148607,3.8375 25.6470589,3.8375 L21.3003096,3.8375 C21.0284749,3.8375 20.7931689,3.67994054 20.6888827,3.45539298 C18.9792683,3.50287354 17.7754201,3.95076318 17.1053331,4.78971533 C15.9519258,6.23934084 16.5009033,8.66649165 16.8668883,10.2771866 C16.9112501,10.4715808 16.9556119,10.6548669 16.9888833,10.8270446 L20.3984958,24.6625 L20.6120685,24.6625 C20.7782759,24.6625 20.9223222,24.7685606 20.9666442,24.9170454 C21.576071,26.9268939 22.3295442,28.0882576 24.4015953,28.0882576 L33.9031137,28.0882576 C34.432948,28.0882576 34.8720003,28.0183794 35.2444855,27.8767308 C36.402853,27.3230977 36.9921759,26.0426271 37.5578948,24.05 L37.8523356,24.05 L41.1161677,10.8270446 C41.1660748,10.5715551 41.2270723,10.2994031 41.2880698,10.0161429 C41.6540548,8.36656908 42.1531252,6.10604198 41.0773511,4.76194473 C40.4422984,3.96937979 39.2850131,3.53011663 37.6263136,3.45666635 C37.5217304,3.68053597 37.2868004,3.8375 37.0154799,3.8375 L32.6687306,3.8375 C32.3009288,3.8375 32,3.54905523 32,3.19651163 L32,2.64098837 C32,2.28844477 32.3009288,2 32.6687306,2 L37.0154799,2 C37.377668,2 37.6750088,2.27970693 37.6840011,2.6248914 C39.602109,2.71062573 40.9270519,3.24192471 41.7261428,4.23985738 C43.0514521,5.89498538 42.5024746,8.37767732 42.1032182,10.1938748 C42.0422207,10.4826891 41.9812232,10.7492869 41.9313162,10.9936682 L41.9257709,11.0158847 L38.5593395,24.6653135 C38.6772837,24.6781235 38.7835661,24.7343335 38.8560917,24.826894 C38.9391954,24.9329545 38.9668966,25.0655303 38.9336552,25.1928031 L38.8228503,25.5958333 C38.0416758,28.157197 36.4848673,29.5625 34.4294368,29.5625 L30.7368421,29.5625 L30.7368421,32.0125 L29.6475995,32.0125 L29.637547,36.28158 L40.0681197,36.28158 C41.1827104,36.28158 42.197487,36.7481261 42.9183666,37.6034608 C43.6059748,38.4088082 43.9885955,39.4974159 43.9996859,40.6582272 C44.0218669,42.8632131 42.8684596,45.2459309 40.7501827,47.367605 C38.8758959,49.2448978 36.5025385,50.6112115 34.5561637,50.9277964 C34.2733571,50.9777835 33.9905505,51 33.7021987,51 C32.4600678,51 31.2567534,50.5612245 30.2918838,49.7447687 C29.1107504,48.7394728 28.4286874,47.2676309 28.4286874,45.7124771 L28.4447408,37.525 L18.1052632,37.525 L18.1052632,36.9231713 C18.1052622,39.6205322 15.8413469,41.8125 13.0526257,41.8125 C10.2662073,41.8125 8,39.6147485 8,36.9125 C8,34.2102515 10.2662073,32.0125 13.0526257,32.0125 C15.8390441,32.0125 18.1052514,34.2102515 18.1052514,36.9125 C18.1052592,36.916058 18.1052632,36.9196151 18.1052632,36.9231713 L18.1052632,36.3 L28.4471426,36.3 L28.4555493,32.0125 L27.5789474,32.0125 L27.5789474,29.5625 L23.8641917,29.5625 C21.8032209,29.5625 20.3295161,28.2367424 19.4929393,25.6223485 L19.4929393,25.6117424 L19.3821343,25.1928031 C19.3488929,25.0655303 19.3765941,24.9329545 19.4596978,24.826894 C19.4837807,24.7961582 19.5115859,24.7694306 19.5423042,24.7469693 C19.5233689,24.680284 19.5047065,24.612793 19.4863158,24.5444954 L19.3684211,24.05 L19.3953844,24.05 Z M29.6430922,37.4812701 L29.6264565,45.3070262 C29.6264565,46.8344094 30.197615,48.1673984 31.1902106,48.9727459 C32.1107184,49.7169981 33.3362137,49.9669336 34.6448874,49.6836734 C36.3306365,49.3171014 38.3823706,48.056316 39.9960318,46.3956339 C41.7538689,44.5849906 42.757555,42.5577365 42.7520098,40.835959 C42.7464646,39.3030217 42.2030323,37.4812701 39.6633181,37.4812701 L29.6430922,37.4812701 Z M13.0526257,32.8765237 C10.7625007,32.8765237 8.89691581,34.6857544 8.89691581,36.9067012 C8.89691581,39.1276479 10.7625007,40.9368787 13.0526257,40.9368787 C15.3427507,40.9368787 17.2083355,39.1276479 17.2083355,36.9067012 C17.2083355,34.6857544 15.3487302,32.8765237 13.0526257,32.8765237 Z M28.7885266,29.5625 L28.7885266,30.9625 L29.511027,30.9625 L29.511027,29.5625 L28.7885266,29.5625 Z" id="合并形状"></path>
            </g>
        </g>
    </g>
</svg>