<?xml version="1.0" encoding="UTF-8"?>
<svg width="40px" height="40px" viewBox="0 0 40 40" version="1.1" xmlns="http://www.w3.org/2000/svg" xmlns:xlink="http://www.w3.org/1999/xlink">
    <!-- Generator: Sketch 52.1 (67048) - http://www.bohemiancoding.com/sketch -->
    <title>血常规</title>
    <desc>Created with Sketch.</desc>
    <g id="Page-1" stroke="none" stroke-width="1" fill="none" fill-rule="evenodd">
        <g id="我的报告-copy-2" transform="translate(-40.000000, -721.000000)" fill="#008FB0">
            <g id="血糖" transform="translate(40.000000, 721.000000)">
                <path d="M21.6841039,32.825165 C19.8983832,33.6413105 17.7764664,34 15.5,34 C9.14844486,34 4,31.2112535 4,23.4780206 C4,15.7447877 15.5,6 15.5,6 C15.5,6 19.9877045,9.80275895 23.3562827,14.5423714 C25.0037829,12.6865059 26.3747118,11.4685999 26.438304,11.4141526 L26.906384,11 L27.374464,11.4141526 C27.7282039,11.7265835 36,19.1195704 36,25.2628337 C36,30.8139314 32.6841353,34 26.906384,34 C24.8481605,34 23.0961982,33.6061104 21.6841039,32.825165 Z M23.2167604,31.949549 C24.260116,32.3511349 25.4946171,32.5540989 26.906384,32.5540989 C30.4044783,32.5540989 34.5778942,31.2898436 34.5778942,25.2664666 C34.5778942,20.5509398 28.6357789,14.5747907 26.906384,12.936345 C26.3337671,13.4762015 25.3061146,14.4889886 24.1868106,15.7683387 C25.80568,18.2848317 27,20.9858801 27,23.4780206 C27,27.5937043 25.540403,30.3096078 23.2167604,31.949549 Z M15.5,7.90253705 C12.8336475,10.3642301 5.43795162,17.7071088 5.43795162,23.4780206 C5.43795162,29.5302688 8.82327992,32.6003517 15.5,32.6003517 C22.1767201,32.6003517 25.5620484,29.5302688 25.5620484,23.4780206 C25.5620484,17.7106255 18.1663525,10.3642301 15.5,7.90253705 Z M14.3706564,30 C9.05019305,30 6,27.2947035 6,22.5758262 C6,22.5758262 6.01158301,22 6.78764479,22 C7.51737452,22 7.53667954,22.5758262 7.53667954,22.5758262 C7.53667954,27.522861 11.2548263,28.5586238 14.3706564,28.5586238 C14.3706564,28.5586238 15,28.5875962 15,29.3119058 C14.996139,29.9782707 14.3706564,30 14.3706564,30 Z" id="合并形状"></path>
            </g>
        </g>
    </g>
</svg>