<?xml version="1.0" encoding="UTF-8"?>
<svg width="42px" height="42px" viewBox="0 0 42 42" version="1.1" xmlns="http://www.w3.org/2000/svg" xmlns:xlink="http://www.w3.org/1999/xlink">
    <!-- Generator: Sketch 52.1 (67048) - http://www.bohemiancoding.com/sketch -->
    <title>赞</title>
    <desc>Created with Sketch.</desc>
    <g id="Page-1" stroke="none" stroke-width="1" fill="none" fill-rule="evenodd">
        <g id="健康资讯-copy" transform="translate(-552.000000, -1468.000000)" fill="#666666" fill-rule="nonzero">
            <g id="zan" transform="translate(552.000000, 1468.000000)">
                <path d="M3.9375,36.75 C3.213,36.75 2.625,36.1633125 2.625,35.4375 L2.625,17.0625 C2.625,16.338 3.213,15.75 3.9375,15.75 C4.662,15.75 5.25,16.338 5.25,17.0625 L5.25,35.4375 C5.25,36.1633125 4.662,36.75 3.9375,36.75 Z M35.450625,15.75 L27.68325,15.75 C28.2489375,14.4375 28.8973125,11.0446875 28.518,7.959 C28.2174375,5.49675 26.78025,3.6080625 24.6736875,2.895375 C23.1118125,2.3664375 21.4659375,2.6236875 20.5786875,3.5293125 C19.5208125,4.6081875 19.0246875,6.6425625 18.4996875,8.79375 C18.1558125,10.2020625 17.800125,11.66025 17.3578125,12.4096875 C16.0820625,14.57925 13.4098125,15.568875 12.8716875,15.75 L9.1875,15.75 C8.463,15.75 7.875,16.338 7.875,17.0625 L7.875,35.4375 C7.875,36.1633125 8.463,36.75 9.1875,36.75 L12.739125,36.75 C13.836375,37.3445625 17.9235,39.375 22.6550625,39.375 L31.5118125,39.375 C32.97,39.375 35.482125,38.810625 36.421875,37.254 C37.3708125,35.676375 39.372375,21.312375 39.372375,19.7203125 C39.372375,17.527125 37.2264375,15.75 35.450625,15.75 Z M34.17225,35.9008125 C33.975375,36.2289375 32.676,36.75 31.5118125,36.75 L22.6550625,36.75 C17.9655,36.75 13.8298125,34.125 13.789125,34.125 C13.789125,34.125 13.7878125,34.125 13.7878125,34.125 C13.5909375,34.125 13.3730625,34.125 13.1263125,34.125 L10.5,34.125 L10.5,18.375 L13.125,18.375 C13.232625,18.375 13.3284375,18.33825 13.4281875,18.3133125 C13.4491875,18.3080625 13.468875,18.314625 13.489875,18.3080625 C13.4990625,18.3054375 13.5253125,18.2975625 13.5594375,18.2870625 C13.5935625,18.27525 13.6303125,18.2686875 13.663125,18.2529375 C14.461125,17.989125 17.868375,16.72125 19.61925,13.7405625 C20.2558125,12.65775 20.6416875,11.08275 21.0485625,9.4171875 C21.427875,7.8645 21.8990625,5.9338125 22.4476875,5.373375 C22.5736875,5.26575 23.186625,5.12925 23.9570625,5.4324375 C24.58575,5.6805 25.67775,6.381375 25.911375,8.28975 C26.4285,12.4936875 24.6238125,16.4968125 24.6054375,16.5375 C24.41775,16.944375 24.451875,17.4050625 24.693375,17.78175 C24.934875,18.157125 25.349625,18.3736875 25.7971875,18.3736875 L35.4493125,18.3736875 C35.805,18.3736875 36.7460625,18.9905625 36.7460625,19.7176875 C36.747375,21.4685625 34.720875,34.657875 34.17225,35.9008125 Z" id="形状"></path>
            </g>
        </g>
    </g>
</svg>