<?xml version="1.0" encoding="UTF-8"?>
<svg width="52px" height="52px" viewBox="0 0 52 52" version="1.1" xmlns="http://www.w3.org/2000/svg" xmlns:xlink="http://www.w3.org/1999/xlink">
    <!-- Generator: Sketch 52.1 (67048) - http://www.bohemiancoding.com/sketch -->
    <title>超声诊断介入治疗</title>
    <desc>Created with Sketch.</desc>
    <g id="Page-1" stroke="none" stroke-width="1" fill="none" fill-rule="evenodd">
        <g id="专科诊疗" transform="translate(-40.000000, -501.000000)" fill="#008FB0" fill-rule="nonzero">
            <g id="分组-12" transform="translate(40.000000, 501.000000)">
                <path d="M9.96104208,7.2519084 C8.5630503,7.2519084 7.42975405,8.37290536 7.42975405,9.75572519 L7.42975405,37.2977099 C7.42975405,38.6805298 8.5630503,39.8015267 9.96104208,39.8015267 L42.8677865,39.8015267 C44.2657782,39.8015267 45.3990745,38.6805298 45.3990745,37.2977099 L45.3990745,9.75572519 C45.3990745,8.37290536 44.2657782,7.2519084 42.8677865,7.2519084 L9.96104208,7.2519084 Z M9.96104208,6 L42.8677865,6 C44.9647741,6 46.6647185,7.68149544 46.6647185,9.75572519 L46.6647185,37.2977099 C46.6647185,39.3719397 44.9647741,41.0534351 42.8677865,41.0534351 L9.96104208,41.0534351 C7.86405442,41.0534351 6.16411004,39.3719397 6.16411004,37.2977099 L6.16411004,9.75572519 C6.16411004,7.68149544 7.86405442,6 9.96104208,6 Z M3.63282201,47 C3.28332406,47 3,46.7197507 3,46.3740458 C3,46.0283409 3.28332406,45.7480916 3.63282201,45.7480916 L49.367178,45.7480916 C49.7166759,45.7480916 50,46.0283409 50,46.3740458 C50,46.7197507 49.7166759,47 49.367178,47 L3.63282201,47 Z M16.5242171,26.8706726 C23.0648011,31.5970525 29.6114251,31.5933725 36.3136274,26.8557361 L29.5473371,16.6412214 L23.153343,16.6412214 C20.5046576,20.9189603 18.2954103,24.3282116 16.5242171,26.8706726 Z M22.7986835,15.389313 L29.8892595,15.389313 C30.1026308,15.389313 30.3016358,15.4956712 30.4185763,15.6722063 L37.7017052,26.6669321 C37.8848956,26.9434793 37.8190624,27.3132612 37.5513853,27.5112721 C30.0651122,33.049154 22.5810176,33.049154 15.2714469,27.5067812 C15.0027674,27.303059 14.943766,26.9262577 15.1375514,26.6516837 C16.9873901,24.0306534 19.3617306,20.3756081 22.2587806,15.6887459 C22.3737518,15.502745 22.5782792,15.389313 22.7986835,15.389313 Z M22.8172103,22.1052511 C22.5623841,21.8686558 22.5497094,21.4725219 22.7889006,21.2204612 C23.0280918,20.9684006 23.428572,20.9558634 23.6833982,21.1924588 C25.2416681,22.6392464 26.7785294,22.6392464 28.5375029,21.1705361 C28.8045695,20.9475404 29.2038269,20.9809174 29.4292692,21.2450856 C29.6547115,21.5092538 29.6209683,21.9041782 29.3539017,22.1271739 C27.1146759,23.9968859 24.8546051,23.9968859 22.8172103,22.1052511 Z M20.9399913,25.3646503 C20.6746383,25.1396621 20.6439173,24.7444965 20.8713741,24.4820232 C21.0988308,24.21955 21.4983321,24.1891624 21.7636851,24.4141506 C21.8138666,24.4566986 21.9226783,24.5409467 22.0842653,24.6530738 C22.3600632,24.8444532 22.6774508,25.0367555 23.0302971,25.216367 C25.4108639,26.4281609 27.8992752,26.4352835 30.2644945,24.4479015 C30.3174778,24.4033821 30.3703344,24.3578779 30.4230624,24.3113824 C30.6839452,24.081336 31.083968,24.1040386 31.3165384,24.3620901 C31.5491088,24.6201417 31.5261571,25.0158232 31.2652743,25.2458695 C31.2050366,25.2989871 31.1445748,25.3510387 31.083891,25.4020284 C28.2762596,27.7611484 25.2465501,27.7524765 22.4511591,26.3295221 C21.7521655,25.9737092 21.2353819,25.6151069 20.9399913,25.3646503 Z" id="合并形状"></path>
            </g>
        </g>
    </g>
</svg>