<?xml version="1.0" encoding="UTF-8"?>
<svg width="40px" height="40px" viewBox="0 0 40 40" version="1.1" xmlns="http://www.w3.org/2000/svg" xmlns:xlink="http://www.w3.org/1999/xlink">
    <!-- Generator: Sketch 52.1 (67048) - http://www.bohemiancoding.com/sketch -->
    <title>超声检查科</title>
    <desc>Created with Sketch.</desc>
    <g id="Page-1" stroke="none" stroke-width="1" fill="none" fill-rule="evenodd">
        <g id="我的报告-copy-2" transform="translate(-40.000000, -1057.000000)" fill="#008FB0" fill-rule="nonzero">
            <g id="超声波" transform="translate(40.000000, 1057.000000)">
                <path d="M35.1111111,6 L4.88888889,6 C4.44444444,6 4,6.453125 4,6.90625 L4,32.28125 C4,32.734375 4.44444444,33.1875 4.88888889,33.1875 L9.33333333,33.1875 L9.33333333,34.09375 C9.33333333,34.546875 9.77777778,35 10.2222222,35 C10.6666667,35 11.1111111,34.546875 11.1111111,34.09375 L11.1111111,33.1875 L28.8888889,33.1875 L28.8888889,34.09375 C28.8888889,34.546875 29.3333333,35 29.7777778,35 C30.2222222,35 30.6666667,34.546875 30.6666667,34.09375 L30.6666667,33.1875 L35.1111111,33.1875 C35.5555556,33.1875 36,32.734375 36,32.28125 L36,6.90625 C36,6.453125 35.5555556,6 35.1111111,6 Z M34,31.5 L6,31.5 L6,7.5 L34,7.5 L34,31.5 Z M20,28 C16.0922177,28 12.275314,26.5777778 9.27631823,24.0888889 C9.00368225,23.8222222 8.91280359,23.3777778 9.09456091,23.0222222 L14.6381591,12.4444444 C14.8199164,12.1777778 15.0925524,12 15.456067,12 L24.543933,12 C24.9074476,12 25.1800836,12.1777778 25.3618409,12.4444444 L30.9054391,23.0222222 C31.0871964,23.3777778 30.9963177,23.8222222 30.7236818,24.0888889 C27.724686,26.5777778 23.9077823,28 20,28 Z M11.5,23.3428571 C13.9285714,25.3857143 16.9642857,26.5 20,26.5 C23.0357143,26.5 26.0714286,25.3857143 28.5,23.3428571 L23.7295918,13.5 L16.0969388,13.5 L11.5,23.3428571 Z M20.0880803,23 C18.5026355,23 16.9171908,22.6099642 15.5079066,21.8298926 C15.0675053,21.6348747 14.8913448,21.049821 15.0675053,20.5622763 C15.2436658,20.0747315 15.7721474,19.8797136 16.2125487,20.0747315 C18.5907158,21.3423479 21.4092842,21.3423479 23.7874513,20.0747315 C24.2278526,19.8797136 24.7563342,20.0747315 24.9324947,20.5622763 C25.1086552,21.049821 24.9324947,21.6348747 24.4920934,21.8298926 C23.2589697,22.6099642 21.673525,23 20.0880803,23 Z M20.0902844,19 C19.0068721,19 18.0137442,18.7671387 17.0206163,18.4566569 C16.5691945,18.301416 16.3886258,17.8356933 16.5691945,17.4475911 C16.7497633,17.0594888 17.2914694,16.9042479 17.7428911,17.0594888 C19.1874408,17.602832 20.9028435,17.602832 22.2571089,17.0594888 C22.7085306,16.9042479 23.2502367,17.0594888 23.4308055,17.4475911 C23.6113742,17.8356933 23.4308055,18.301416 22.9793837,18.4566569 C22.1668245,18.8447591 21.1736966,19 20.0902844,19 Z" id="形状"></path>
            </g>
        </g>
    </g>
</svg>