<?xml version="1.0" encoding="UTF-8"?>
<svg width="40px" height="40px" viewBox="0 0 40 40" version="1.1" xmlns="http://www.w3.org/2000/svg" xmlns:xlink="http://www.w3.org/1999/xlink">
    <!-- Generator: Sketch 52.1 (67048) - http://www.bohemiancoding.com/sketch -->
    <title>路线导航</title>
    <desc>Created with Sketch.</desc>
    <g id="Page-1" stroke="none" stroke-width="1" fill="none" fill-rule="evenodd">
        <g id="就诊导航" transform="translate(-40.000000, -642.000000)" fill="#008FB0">
            <g id="路线导航" transform="translate(40.000000, 642.000000)">
                <path d="M17.1587005,24.0326255 L3.96718536,20.8711323 C1.50205075,20.2816129 1.30611094,17.7735471 3.64944513,16.82536 L34.7270873,4.24590363 C36.9645081,3.3394524 38.6922205,5.07279584 37.7257607,7.25740854 L27.8956724,29.4948094 C27.671002,30.0024754 27.1884766,30.3534988 26.6298588,30.4156526 C26.0712409,30.4778064 25.521398,30.2416478 25.1874505,29.7961356 C24.853503,29.3506233 24.7861855,28.7634413 25.0108559,28.2557753 L34.0174674,7.8834468 L7.63973283,18.561312 L18.8202171,21.240234 C19.384206,21.3758757 19.8263945,21.8049727 19.9720254,22.3592774 L23.2924108,35.0313353 C23.4465811,35.5717996 23.2919376,36.1521409 22.88818,36.5483193 C22.4844224,36.9444978 21.8947174,37.0945326 21.3467195,36.9405032 C20.7987216,36.7864737 20.3781632,36.3524774 20.2474003,35.8060577 L17.1587005,24.0326255 Z" id="路径"></path>
            </g>
        </g>
    </g>
</svg>