<?xml version="1.0" encoding="UTF-8"?>
<svg width="52px" height="52px" viewBox="0 0 52 52" version="1.1" xmlns="http://www.w3.org/2000/svg" xmlns:xlink="http://www.w3.org/1999/xlink">
    <!-- Generator: Sketch 52.1 (67048) - http://www.bohemiancoding.com/sketch -->
    <title>转化医学中心</title>
    <desc>Created with Sketch.</desc>
    <g id="Page-1" stroke="none" stroke-width="1" fill="none" fill-rule="evenodd">
        <g id="专科诊疗" transform="translate(-40.000000, -1167.000000)" fill="#008FB0" fill-rule="nonzero">
            <g id="转换" transform="translate(40.000000, 1167.000000)">
                <path d="M10.0457954,21.7663637 L20.7653324,21.7663637 C21.4188773,21.7663637 21.8111691,21.2452742 21.8111691,20.7241847 C21.8111691,20.0727612 21.2882508,19.6820468 20.7653324,19.6820468 L12.5296368,19.6820468 C15.0133546,14.6015681 20.1116639,11.0842758 25.9943507,11.0842758 C33.4457101,11.0842758 39.7204826,16.6858439 40.766278,23.8505572 L42.9886603,23.8505572 C41.9429061,15.513372 34.7529647,9.00004109 25.9943507,9.00004109 C19.5887868,9.00004109 14.0983506,12.5173335 11.0916321,17.7280229 L11.0916321,10.0421379 C11.0916321,9.52108948 10.6995464,9 10.0457954,9 C9.52291832,9 9,9.52108948 9,10.0421379 L9,20.7241847 C9.00004123,21.7663637 10.0457954,21.7663637 10.0457954,21.7663637 Z M42.0735326,30.2338007 L31.3541605,30.2338007 C30.7004507,30.2338007 30.3083651,30.7548902 30.3083651,31.2759797 C30.3083651,31.9271566 30.8312834,32.3180765 31.3541605,32.3180765 L39.4590647,32.3180765 C37.1060147,37.3984319 31.8770376,40.7855546 25.9943507,40.7855546 C18.5429914,40.7855546 12.2682189,35.1839864 11.2224235,28.019232 L9.1308739,28.019232 C10.1766693,36.4867102 17.3664046,43 25.9943507,43 C32.3999147,43 38.0209774,39.482872 40.8971107,34.2720182 L40.8971107,41.9578621 C40.8971107,42.6092856 41.420029,43 41.9429061,43 C42.5964921,43 42.9887015,42.4789516 42.9887015,41.9578621 L42.9887015,31.2760208 C43.1193692,30.2338007 42.0735326,30.2338007 42.0735326,30.2338007 Z" id="形状"></path>
            </g>
        </g>
    </g>
</svg>