<?xml version="1.0" encoding="UTF-8"?>
<svg width="36px" height="36px" viewBox="0 0 36 36" version="1.1" xmlns="http://www.w3.org/2000/svg" xmlns:xlink="http://www.w3.org/1999/xlink">
    <!-- Generator: Sketch 52.1 (67048) - http://www.bohemiancoding.com/sketch -->
    <title>预约时间</title>
    <desc>Created with Sketch.</desc>
    <g id="Page-1" stroke="none" stroke-width="1" fill="none" fill-rule="evenodd">
        <g id="体检套餐-copy-5" transform="translate(-41.000000, -383.000000)" fill="#008FB0" fill-rule="nonzero">
            <g id="time-circle-copy" transform="translate(41.000000, 383.000000)">
                <path d="M18,1.375 C27.1808594,1.375 34.625,8.81914063 34.625,18 C34.625,27.1808594 27.1808594,34.625 18,34.625 C8.81914063,34.625 1.375,27.1808594 1.375,18 C1.375,8.81914063 8.81914063,1.375 18,1.375 Z M18,31.8046875 C25.6222656,31.8046875 31.8046875,25.6222656 31.8046875,18 C31.8046875,10.3777344 25.6222656,4.1953125 18,4.1953125 C10.3777344,4.1953125 4.1953125,10.3777344 4.1953125,18 C4.1953125,25.6222656 10.3777344,31.8046875 18,31.8046875 Z M24.4830078,22.6980469 C24.6166016,22.7908203 24.6462891,22.9763672 24.5498047,23.1136719 L23.4884766,24.5609375 C23.3919922,24.6908203 23.2064453,24.7205078 23.0728516,24.6240234 L16.9349609,20.1486328 C16.8570313,20.0929688 16.8125,20.0039063 16.8125,19.9074219 L16.8125,9.6875 C16.8125,9.52421875 16.9460938,9.390625 17.109375,9.390625 L18.8943359,9.390625 C19.0576172,9.390625 19.1912109,9.52421875 19.1912109,9.6875 L19.1912109,18.8720703 L24.4830078,22.6980469 Z" id="合并形状"></path>
            </g>
        </g>
    </g>
</svg>