<?xml version="1.0" encoding="UTF-8"?>
<svg width="36px" height="36px" viewBox="0 0 36 36" version="1.1" xmlns="http://www.w3.org/2000/svg" xmlns:xlink="http://www.w3.org/1999/xlink">
    <!-- Generator: Sketch 52.1 (67048) - http://www.bohemiancoding.com/sketch -->
    <title>预约挂号</title>
    <desc>Created with Sketch.</desc>
    <g id="Page-1" stroke="none" stroke-width="1" fill="none" fill-rule="evenodd">
        <g id="icon状态" transform="translate(-388.000000, -58.000000)" fill="#008FB0" fill-rule="nonzero">
            <g id="carry-out" transform="translate(388.000000, 58.000000)">
                <path d="M33.09375,4.546875 L26.203125,4.546875 L26.203125,1.921875 C26.203125,1.74140625 26.0554687,1.59375 25.875,1.59375 L23.578125,1.59375 C23.3976563,1.59375 23.25,1.74140625 23.25,1.921875 L23.25,4.546875 L12.75,4.546875 L12.75,1.921875 C12.75,1.74140625 12.6023437,1.59375 12.421875,1.59375 L10.125,1.59375 C9.94453125,1.59375 9.796875,1.74140625 9.796875,1.921875 L9.796875,4.546875 L2.90625,4.546875 C2.18027344,4.546875 1.59375,5.13339844 1.59375,5.859375 L1.59375,33.09375 C1.59375,33.8197266 2.18027344,34.40625 2.90625,34.40625 L33.09375,34.40625 C33.8197266,34.40625 34.40625,33.8197266 34.40625,33.09375 L34.40625,5.859375 C34.40625,5.13339844 33.8197266,4.546875 33.09375,4.546875 Z M31.453125,31.453125 L4.546875,31.453125 L4.546875,7.5 L9.796875,7.5 L9.796875,9.46875 C9.796875,9.64921875 9.94453125,9.796875 10.125,9.796875 L12.421875,9.796875 C12.6023437,9.796875 12.75,9.64921875 12.75,9.46875 L12.75,7.5 L23.25,7.5 L23.25,9.46875 C23.25,9.64921875 23.3976563,9.796875 23.578125,9.796875 L25.875,9.796875 C26.0554687,9.796875 26.203125,9.64921875 26.203125,9.46875 L26.203125,7.5 L31.453125,7.5 L31.453125,31.453125 Z M25.21875,14.2265625 L22.9546875,14.2265625 C22.7455078,14.2265625 22.5445312,14.3291016 22.4214844,14.4972656 L16.2322266,23.0203125 L13.5785156,19.3699219 C13.4554687,19.2017578 13.2585937,19.0992187 13.0453125,19.0992187 L10.78125,19.0992187 C10.5146484,19.0992187 10.3587891,19.4027344 10.5146484,19.6201172 L15.6990234,26.7568359 C15.9615234,27.1177734 16.5029297,27.1177734 16.7654297,26.7568359 L25.4853516,14.7515625 C25.6412109,14.5300781 25.4853516,14.2265625 25.21875,14.2265625 Z" id="形状"></path>
            </g>
        </g>
    </g>
</svg>